<?xml version="1.0" standalone="no"?>
<!DOCTYPE svg PUBLIC "-//W3C//DTD SVG 20010904//EN"
 "http://www.w3.org/TR/2001/REC-SVG-20010904/DTD/svg10.dtd">
<svg version="1.0" xmlns="http://www.w3.org/2000/svg"
 width="200.000000pt" height="200.000000pt" viewBox="0 0 200.000000 200.000000"
 preserveAspectRatio="xMidYMid meet">
<metadata>
Created by potrace 1.16, written by Peter Selinger 2001-2019
</metadata>
<g transform="translate(0.000000,200.000000) scale(0.100000,-0.100000)"
fill="#000000" stroke="none">
<path d="M795 1983 c-252 -62 -460 -196 -599 -388 -77 -107 -97 -143 -131
-240 -9 -27 -21 -59 -26 -70 -45 -105 -45 -461 0 -570 4 -11 23 -58 41 -105
18 -47 39 -92 46 -101 8 -8 14 -19 14 -23 0 -15 109 -153 161 -203 191 -184
435 -283 699 -283 264 0 508 99 699 283 52 50 161 188 161 203 0 4 6 15 14 23
7 9 28 54 46 101 18 47 37 94 41 105 45 108 45 462 0 570 -4 11 -23 58 -41
105 -18 47 -39 92 -46 101 -8 8 -14 19 -14 23 0 4 -24 39 -53 79 -149 201
-355 332 -612 391 -89 20 -314 20 -400 -1z m-130 -366 c35 -29 37 -89 6 -120
-31 -32 -89 -27 -118 10 -31 38 -29 65 6 102 35 37 69 40 106 8z m0 -651 l0
-419 -25 -3 c-14 -2 -40 -1 -57 2 l-33 5 0 414 c0 321 3 415 13 419 6 3 32 4
57 3 l45 -2 0 -419z m610 409 c104 -22 159 -49 219 -108 53 -51 68 -74 103
-152 22 -48 26 -246 6 -286 -6 -13 -20 -42 -29 -63 -46 -101 -187 -197 -319
-216 -102 -14 -388 -13 -403 2 -9 9 -12 114 -12 409 0 348 2 400 16 413 22 22
313 23 419 1z"/>
<path d="M970 964 l0 -306 158 4 c146 4 160 6 203 30 83 45 128 104 154 202
18 67 18 71 0 140 -20 80 -35 108 -80 149 -71 67 -140 86 -307 87 l-128 0 0
-306z"/>
</g>
</svg>
