<?xml version="1.0" encoding="utf-8"?>
<svg version="1.1" id="Layer_1" xmlns="http://www.w3.org/2000/svg" xmlns:xlink="http://www.w3.org/1999/xlink" x="0px" y="0px" viewBox="0 0 122.9 122.9" style="enable-background:new 0 0 122.9 122.9" xml:space="preserve">
<g
       id="g155"
       transform="matrix(0.80075688,0,0,0.80075688,0.84677088,1.0979987)">
      <path
         style="fill:#cd9678;stroke-width:0.266221"
         d="m 1.0456684,130.4667 c 2.86118,-0.14647 2.98405,-0.1789 4.79199,-1.26514 1.02053,-0.61314 2.56463,-1.65093 3.43135,-2.3062 1.6778296,-1.26849 9.0845796,-5.26758 11.7172096,-6.32642 0.86862,-0.34935 3.74381,-1.71339 6.38931,-3.03118 2.64549,-1.3178 5.58869,-2.6815 6.54043,-3.03045 2.7479,-1.0075 9.40727,-4.0533 9.89536,-4.52585 0.51183,-0.49553 2.61704,-5.0869 2.61704,-5.70766 0,-0.22826 0.13228,-0.49676 0.29394,-0.59668 0.59385,-0.36702 1.29181,-2.40619 1.29754,-3.79094 0.008,-1.80856 -0.97669,-5.29949 -2.53483,-8.991171 -0.67502,-1.59929 -1.80857,-4.44125 -2.51902,-6.31545 -0.8981,-2.36926 -1.5779,-3.72441 -2.23091,-4.44721 -1.1349,-1.25621 -2.02714,-2.93794 -2.02714,-3.82086 0,-0.35681 -0.60457,-1.53465 -1.34349,-2.61743 -1.09598,-1.60598 -1.38739,-2.27922 -1.58175,-3.65421 -0.146,-1.03296 -0.43953,-1.90475 -0.75815,-2.25173 -0.72014,-0.78423 -2.97214,-5.35767 -2.97214,-6.0359 0,-0.78329 0.47942,-1.58515 0.94773,-1.58515 0.21811,0 0.50888,-0.29544 0.64617,-0.65653 0.25442,-0.66916 -0.0149,-1.87476 -0.86437,-3.86923 -0.21827,-0.51248 -0.47914,-1.83027 -0.57972,-2.92843 -0.10058,-1.09817 -0.4042,-2.72296 -0.67471,-3.61066 -0.65338,-2.14408 -0.93639,-7.97068 -0.54876,-11.29773 0.16206,-1.39101 0.36902,-3.72362 0.45989,-5.18359 0.21564,-3.4642 1.20131,-5.74667 3.60503,-8.34796 3.53387,-3.82433 4.48625,-5.03568 5.45233,-6.93492 2.04356,-4.01751 5.594,-6.06472 13.22638,-7.62645 2.763,-0.56536 4.15714,-0.66866 10.91507,-0.8087 8.62209,-0.17868 10.5028,-0.0257 15.32783,1.24669 3.76947,0.99405 6.31348,2.14938 8.77339,3.98435 3.05706,2.28039 6.37511,6.62666 7.72796,10.12273 0.41869,1.08197 1.1275,2.86572 1.57515,3.96388 1.81112,4.44303 2.107892,5.4882 2.418932,8.51908 0.27622,2.69144 0.24763,3.68911 -0.23651,8.25286 -0.302892,2.85522 -0.550912,5.27809 -0.551152,5.38414 -2.4e-4,0.10606 0.356932,0.37764 0.793722,0.60351 0.43679,0.22587 0.97588,0.7621 1.198,1.19161 0.52327,1.01189 0.52716,4.04334 0.007,5.75672 -0.23182,0.76415 -0.39765,2.37071 -0.39934,3.86867 -0.002,1.94372 -0.12662,2.84297 -0.51574,3.7271 -0.28207,0.64091 -0.66656,2.4048 -0.854412,3.91977 -0.35855,2.89152 -0.32816,2.83121 -2.20377,4.37499 -0.71688,0.59005 -0.78972,0.81842 -0.96024,3.0107 -0.26194,3.36766 -0.69743,5.3959 -1.90978,8.89465 -1.51145,4.36191 -1.80506,5.53091 -1.80863,7.20105 -0.003,1.427301 0.0263,1.487921 0.8655,1.791411 1.23061,0.44499 2.1271,1.98576 3.26369,5.60918 1.47976,4.71746 3.045502,8.90115 3.541932,9.46413 0.56175,0.63706 3.53942,2.01025 6.75405,3.11471 1.36219,0.46801 6.0707,2.22361 10.46335,3.90132 4.39265,1.67772 8.64554,3.27728 9.45086,3.55458 0.80532,0.2773 2.02861,0.77388 2.71842,1.1035 l 1.25421,0.59932 0.0103,4.3261 0.0103,4.32609 -66.621872,-0.0494 C 28.089038,130.63921 -0.5693916,130.54938 1.0456684,130.4667 Z M 48.371928,59.732089 c 0.0928,-0.0928 -0.0669,-0.46837 -0.35496,-0.83457 -0.28805,-0.36619 -0.52372,-0.99623 -0.52372,-1.40008 0,-1.47321 -1.5056,-1.1395 -2.24369,0.4973 -0.71271,1.58049 -0.47486,1.90611 1.3923,1.90611 0.85872,0 1.63725,-0.0759 1.73007,-0.16876 z m 6.52382,-1.18678 c 1.71803,-0.58019 1.97027,-0.93342 1.17835,-1.6501 -0.60503,-0.54754 -2.71575,-1.50669 -3.33235,-1.51427 -0.38777,-0.005 -0.42452,0.089 -0.19967,0.50909 0.38165,0.71311 0.34181,1.61472 -0.10959,2.48005 -0.36241,0.69474 -0.35138,0.73211 0.21617,0.73211 0.32894,0 1.34013,-0.2506 2.24709,-0.55688 z m 22.14806,-1.83911 c 0,-0.14643 -0.11673,-0.26623 -0.25939,-0.26623 -0.38762,0 -1.07172,-1.46752 -1.07172,-2.29905 0,-0.4005 0.26004,-1.00497 0.57786,-1.34328 0.8134,-0.86582 0.44413,-1.03908 -1.03781,-0.48694 -1.6234,0.60484 -2.41204,1.31372 -3.05655,2.74744 -0.75443,1.67825 -0.44814,1.91428 2.48421,1.91428 1.39812,0 2.3634,-0.10874 2.3634,-0.26622 z m 5.4042,-1.2301 c 1.00094,-0.50686 1.78377,-1.15494 1.78377,-1.47674 0,-0.25889 -2.8005,-1.5527 -3.36089,-1.5527 -0.47034,0 -0.46094,0.14037 0.063,0.93996 0.2998,0.45756 0.37642,0.93625 0.25416,1.58796 -0.20008,1.06651 -0.007,1.14324 1.25998,0.50152 z"
         id="path106" />
      <path
         style="fill:#c48a6c;stroke-width:0.266221"
         d="m 1.04568,130.46717 c 2.86118,-0.14647 2.98405,-0.1789 4.79198,-1.26514 1.02053,-0.61314 2.56464,-1.65093 3.43135,-2.3062 1.67783,-1.26849 9.08458,-5.26758 11.71721,-6.32642 0.86863,-0.34935 3.74382,-1.71339 6.38931,-3.03118 2.6455,-1.3178 5.588698,-2.6815 6.540438,-3.03045 2.74789,-1.0075 9.40726,-4.0533 9.89535,-4.52585 0.49774,-0.48189 2.61705,-5.07914 2.61705,-5.67696 0,-0.48889 1.22727,-1.65917 1.41739,-1.35157 0.0784,0.12677 0.3262,1.02284 0.5508,1.99127 0.22459,0.96843 0.6639,2.22146 0.97624,2.78452 1.99225,3.59148 2.17908,3.82858 4.24143,5.3826 1.15439,0.86986 2.49566,1.6601 2.9806,1.7561 1.63888,0.32441 2.25986,0.69997 2.70671,1.63702 0.49131,1.03031 0.70403,1.03577 2.62361,0.0674 0.54325,-0.27406 1.17219,-0.49829 1.39766,-0.49829 0.87638,0 0.34949,-0.70027 -0.77718,-1.03294 -0.65292,-0.19278 -1.32522,-0.51691 -1.494,-0.72028 -0.45026,-0.54252 -0.0959,-1.17521 0.65816,-1.17521 0.42806,0 0.71632,-0.19012 0.82965,-0.5472 0.13167,-0.41487 -0.12153,-0.8628 -1.04695,-1.85215 -0.67134,-0.71771 -1.22062,-1.41353 -1.22062,-1.54626 0,-0.50303 -1.41487,-1.62272 -3.26822,-2.58638 -1.0577,-0.54995 -1.95843,-1.02775 -2.00162,-1.06177 -0.16041,-0.12636 -1.44896,-3.75737 -1.69056,-4.76385 -0.13773,-0.57376 -0.6048,-1.568301 -1.03794,-2.210081 -0.94525,-1.4006 -1.58562,-2.60802 -1.58562,-2.98969 0,-0.58457 0.79061,-0.24218 1.53996,0.66691 1.40844,1.70868 4.98378,4.516351 7.26689,5.706601 1.96861,1.02629 2.45583,1.17042 4.00423,1.18452 l 1.76291,0.0161 1.27403,-1.41687 c 1.27325,-1.41601 1.2748,-1.41677 2.53547,-1.24338 0.90537,0.12452 1.48939,0.0556 2.06896,-0.24409 0.93603,-0.484041 1.16059,-1.021431 1.06979,-2.560171 -0.0481,-0.8157 0.0546,-1.17706 0.38743,-1.36334 0.2491,-0.13941 0.45291,-0.52442 0.45291,-0.85559 0,-0.53543 -0.23847,-0.65625 -2.15316,-1.09083 -1.18423,-0.26879 -2.21535,-0.65078 -2.29136,-0.84887 -0.18889,-0.49223 -1.42659,-0.45366 -2.17087,0.0677 -0.57382,0.40193 -0.64987,0.39107 -1.25723,-0.17952 -0.42544,-0.39968 -0.64646,-0.90102 -0.64646,-1.46639 0,-0.6996 0.17297,-0.96112 0.93178,-1.40883 1.04813,-0.61841 1.21085,-1.10016 0.3716,-1.10016 -0.30809,0 -2.17031,-0.50221 -4.13826,-1.11603 -2.71118,-0.84564 -3.83323,-1.33442 -4.63115,-2.01741 -1.18214,-1.01187 -1.35352,-1.79529 -0.45405,-2.07548 0.32945,-0.10263 1.03861,-0.53244 1.57592,-0.95513 0.95441,-0.75082 4.33529,-1.82259 5.74935,-1.82259 0.65031,0 0.65009,-0.001 -0.1757,-0.77236 -0.45475,-0.42481 -0.82682,-0.84983 -0.82682,-0.9445 0,-0.0947 0.32035,-0.46901 0.71189,-0.83187 0.81925,-0.75925 0.6473,-1.09328 -0.74589,-1.44897 -0.49377,-0.12606 -1.87945,-0.57132 -3.07928,-0.98945 -2.83104,-0.9866 -3.35898,-1.61165 -3.45891,-4.09516 -0.0657,-1.63177 0.0282,-2.01339 0.9877,-4.0143 1.40697,-2.93418 2.47316,-4.60711 2.93618,-4.60711 0.64044,0 0.57789,0.8204 -0.12637,1.65737 -0.6184,0.73492 -2.43178,5.36592 -2.58263,6.59549 -0.0359,0.29284 0.0262,0.92179 0.13805,1.39766 0.19454,0.82768 0.25879,0.86522 1.48081,0.86522 0.70259,0 1.72419,0.18666 2.27022,0.41481 0.89893,0.3756 1.0361,0.3756 1.45113,0 0.2521,-0.22815 0.58803,-0.41481 0.74651,-0.41481 0.15848,0 0.60588,-0.3776 0.99423,-0.83912 0.6611,-0.78568 0.6944,-0.95099 0.52278,-2.59566 -0.10081,-0.96609 -0.40635,-2.47533 -0.67898,-3.35386 -0.63517,-2.04682 -0.62868,-3.12981 0.0311,-5.19517 0.35089,-1.09836 0.51557,-2.27284 0.48082,-3.429 -0.0907,-3.01842 1.20016,-8.26391 2.37535,-9.65218 0.20463,-0.24174 0.78207,-0.51644 1.2832,-0.61045 0.5192,-0.0974 1.03626,-0.40474 1.20202,-0.71446 0.15999,-0.29893 0.73049,-0.72654 1.26779,-0.95024 0.53729,-0.22369 1.06491,-0.543 1.17249,-0.70957 0.40641,-0.6293 0.17879,-2.59121 -0.48867,-4.21207 -0.38083,-0.92479 -0.86235,-2.10073 -1.07005,-2.6132 -0.2077,-0.51248 -0.54673,-1.77038 -0.7534,-2.79533 -0.20667,-1.02495 -0.56612,-2.40264 -0.79878,-3.06154 -0.23267,-0.6589 -0.53898,-1.6772 -0.6807,-2.26288 -0.35521,-1.46795 -1.13982,-2.66191 -2.04652,-3.11423 -0.41949,-0.20927 -1.66532,-1.11229 -2.7685,-2.0067 -1.54426,-1.25201 -2.08853,-1.87689 -2.36534,-2.71566 -0.57574,-1.74449 -0.69351,-1.758 -3.9019,-0.44744 -1.59078,0.6498 -3.55123,1.36723 -4.35655,1.59428 -1.7296,0.48764 -6.96622,1.23221 -8.66625,1.23221 -1.4179,0 -3.3647,0.9363 -4.56919,2.19753 -1.09775,1.14946 -2.21737,3.29363 -3.16191,6.05533 -0.72381,2.11634 -0.77393,2.53011 -0.77393,6.38931 v 4.12643 l 0.82967,1.46422 c 0.45631,0.80532 0.9187,1.87002 1.02751,2.366 0.10882,0.49598 0.22245,3.85037 0.25252,7.45419 0.0625,7.48831 0.38604,11.35862 1.41358,16.909 0.13939,0.75291 0.12004,0.76821 -0.75835,0.59972 -0.53436,-0.10251 -1.25367,-0.551 -1.7666,-1.10149 -0.70847,-0.76036 -0.86521,-1.14406 -0.86521,-2.11796 0,-0.65416 0.13899,-1.49445 0.30888,-1.86731 0.23959,-0.52584 0.22901,-0.93178 -0.0471,-1.80952 -0.53591,-1.70331 -0.64881,-1.7725 -0.79418,-0.48671 -0.0732,0.64753 -0.26812,1.22164 -0.43312,1.27581 -0.40196,0.13196 -2.761538,-4.47462 -2.761538,-5.39132 0,-0.69887 0.0378,-0.7178 1.096518,-0.54851 0.98211,0.15705 1.07568,0.12588 0.89686,-0.29875 -0.1098,-0.26075 -0.30729,-1.11509 -0.43885,-1.89853 -0.13156,-0.78343 -0.52011,-2.10123 -0.86344,-2.92843 -0.343338,-0.8272 -0.706618,-2.4025 -0.807308,-3.50066 -0.10068,-1.09816 -0.40439,-2.72296 -0.6749,-3.61066 -0.65338,-2.14408 -0.93639,-7.97068 -0.54876,-11.29773 0.16206,-1.39101 0.36902,-3.72362 0.45989,-5.18359 0.21564,-3.4642 1.20131,-5.74667 3.605028,-8.34796 3.53387,-3.82433 4.48624,-5.03568 5.45232,-6.93492 2.04357,-4.0175 5.59401,-6.06472 13.22639,-7.62645 2.76299,-0.56536 4.15714,-0.66866 10.91507,-0.8087 8.62209,-0.17868 10.5028,-0.0257 15.32783,1.24669 3.76947,0.99405 6.31348,2.14938 8.77339,3.98435 3.05706,2.28039 6.37511,6.62666 7.72796,10.12273 0.41869,1.08197 1.1275,2.86572 1.57515,3.96388 2.616792,6.41953 2.972722,8.88403 2.290762,15.86139 -0.24215,2.4775 -0.540882,4.8973 -0.663852,5.37735 -0.17046,0.66543 -0.12625,0.95008 0.18607,1.198 1.927822,1.53032 1.947612,1.57367 1.947612,4.26455 0,1.62961 -0.14872,2.92654 -0.42211,3.68102 -0.31689,0.87454 -0.38145,1.68216 -0.259,3.23997 0.13758,1.75029 0.0772,2.26923 -0.38564,3.31559 -0.30181,0.68229 -0.73537,2.3841 -0.963472,3.78181 -0.22811,1.3977 -0.46553,2.80937 -0.52762,3.13704 -0.0697,0.36768 -0.52304,0.805 -1.18423,1.14232 -1.24756,0.63646 -1.58234,1.34097 -1.58234,3.32989 0,1.30359 -0.44433,4.0651 -1.0479,6.51266 -0.12638,0.51247 -0.6163,1.95007 -1.08873,3.19465 -0.9289,2.4472 -1.23687,3.74712 -1.49507,6.31072 l -0.16636,1.65184 1.04535,0.41827 c 1.42664,0.57083 2.24576,1.93158 3.42419,5.688371 1.47975,4.71746 3.045492,8.90115 3.541912,9.46413 0.56175,0.63706 3.53942,2.01025 6.75406,3.11471 1.36219,0.46801 6.0707,2.22361 10.46335,3.90132 4.39265,1.67772 8.64553,3.27728 9.45085,3.55458 0.80532,0.2773 2.02862,0.77388 2.71843,1.1035 l 1.25421,0.59932 0.0103,4.3261 0.0104,4.32609 -66.621862,-0.0494 C 28.08908,130.63979 -0.56935,130.5499 1.04571,130.46722 Z M 71.076408,92.876239 c 0.1724,-0.27896 -0.82234,-1.27488 -1.28713,-1.28866 -0.38662,-0.0115 -0.1941,0.87138 0.26622,1.22081 0.57899,0.43952 0.78283,0.45306 1.02091,0.0678 z m 5.9674,-36.16957 c 0,-0.14642 -0.11672,-0.26622 -0.25938,-0.26622 -0.38763,0 -1.07172,-1.46753 -1.07172,-2.29906 0,-0.40049 0.26003,-1.00497 0.57786,-1.34328 0.76797,-0.81747 0.46537,-1.04098 -0.86836,-0.64139 -2.1038,0.63032 -4.27711,3.40535 -3.56692,4.55448 0.21571,0.34901 5.18852,0.34467 5.18852,-0.005 z m 5.98998,-1.40924 c 0.62124,-0.35109 1.09847,-0.83423 1.14551,-1.15968 0.067,-0.46381 -0.21894,-0.67778 -1.69637,-1.26923 -0.97735,-0.39126 -1.84593,-0.64245 -1.93018,-0.5582 -0.0842,0.0842 0.0619,0.51733 0.32482,0.96239 0.33801,0.5722 0.42784,1.07661 0.30672,1.72225 -0.14357,0.76532 -0.094,0.91233 0.30667,0.90866 0.26287,-0.002 0.95714,-0.27519 1.54283,-0.60619 z m -32.34588,7.60212 c -1.48736,-0.12838 -1.83503,-0.43077 -1.24495,-1.0828 0.61787,-0.68274 0.56196,-0.8499 -0.28583,-0.85462 -0.40266,-0.002 -0.91122,-0.11731 -1.13014,-0.25571 -0.34258,-0.21658 -0.32672,-0.30377 0.11384,-0.62593 0.50224,-0.36724 0.50096,-0.38817 -0.0679,-1.11129 -0.31885,-0.40536 -0.57973,-1.08025 -0.57973,-1.49977 0,-0.41976 -0.25125,-1.01401 -0.55873,-1.32149 -0.47343,-0.47344 -0.74775,-0.5309 -1.79699,-0.37641 -0.68104,0.10027 -1.85185,0.5314 -2.60178,0.95806 -1.53472,0.87315 -2.37192,0.96662 -3.23612,0.36131 -1.41053,-0.98797 -0.36802,-3.43519 2.00283,-4.70148 2.46492,-1.31653 9.41505,-2.07178 12.91755,-1.4037 1.15508,0.22032 2.05855,1.19622 2.05855,2.22359 0,0.46573 0.34651,1.00713 1.06488,1.66378 1.18441,1.08265 1.3304,1.77699 0.52659,2.50442 -0.52544,0.47552 -0.55881,0.4677 -1.39766,-0.32746 -0.85452,-0.81002 -3.09767,-1.94071 -3.85013,-1.94071 -0.27363,0 -0.33311,0.14231 -0.19472,0.46589 0.41928,0.98038 0.43048,1.92745 0.0322,2.72575 -0.57205,1.14669 -0.0907,1.28661 2.03212,0.5907 2.78834,-0.91409 2.85156,-0.92529 2.85156,-0.50511 0,0.21157 -0.18947,0.54192 -0.42106,0.73412 -0.23158,0.19219 -0.76143,1.02372 -1.17744,1.84785 -0.64462,1.27697 -0.91153,1.54488 -1.80616,1.81292 -0.57737,0.17298 -1.27546,0.29359 -1.55132,0.26801 -0.27586,-0.0256 -1.04065,-0.093 -1.69955,-0.14992 z m -8.63472,-1.37262 c -0.0809,-0.13087 0.0319,-0.66611 0.25051,-1.18944 0.21866,-0.52333 0.39757,-1.17146 0.39757,-1.44028 0,-0.53768 1.56634,-2.19054 2.07589,-2.19054 0.41672,0 0.40367,0.26742 -0.0682,1.39669 -0.236,0.56481 -0.32689,1.30757 -0.23176,1.89381 0.0972,0.59881 0.0301,1.1168 -0.17676,1.36612 -0.35977,0.43349 -2.00639,0.5534 -2.24727,0.16364 z"
         id="path104" />
      <g
         id="g137">
        <path
           style="fill:#b98062;stroke-width:0.266221"
           d="m 0.961188,129.9349 c 2.86118,-0.14647 2.98405,-0.1789 4.79198,-1.26514 1.02053,-0.61314 2.56464,-1.65093 3.43135,-2.3062 1.67783,-1.26849 9.08458,-5.26758 11.71721,-6.32642 0.86863,-0.34935 3.74382,-1.71339 6.38931,-3.03118 2.6455,-1.3178 5.58869,-2.6815 6.54044,-3.03045 2.74789,-1.0075 9.40726,-4.0533 9.89535,-4.52585 0.50012,-0.48419 2.61705,-5.08044 2.61705,-5.68211 0,-0.42862 0.98875,-1.43552 1.20111,-1.22316 0.0731,0.0731 0.35508,0.97898 0.62655,2.01299 0.57305,2.1827 2.36436,5.66176 3.58316,6.95917 1.32365,1.40903 3.82227,3.16722 4.77293,3.35853 1.62757,0.32755 1.80598,0.44082 2.33852,1.48468 0.29337,0.57504 0.6807,1.04436 0.86075,1.04293 0.18006,-0.001 0.96723,-0.30047 1.74928,-0.66454 0.90547,-0.42152 1.65483,-0.60348 2.06322,-0.50098 0.57034,0.14315 0.6413,0.073 0.6413,-0.63397 0,-0.92304 -0.33815,-1.26112 -1.51238,-1.51205 -1.09884,-0.23482 -1.75952,-0.9454 -0.879,-0.9454 0.64724,0 1.30427,-0.67191 1.31803,-1.34785 0.005,-0.22885 -0.35585,-0.76512 -0.80112,-1.19172 -0.44528,-0.4266 -1.16803,-1.3342 -1.60611,-2.0169 -0.82398,-1.28406 -1.84123,-2.08159 -4.14245,-3.24771 -1.23159,-0.62409 -1.38932,-0.81561 -1.94448,-2.36092 -0.3323,-0.92496 -0.76574,-2.25492 -0.9632,-2.95547 -0.19746,-0.70055 -0.69918,-1.77874 -1.11493,-2.39599 -1.20762,-1.7929 -1.26209,-1.97779 -0.30355,-1.03046 2.1551,2.12989 5.3248,4.46796 7.42343,5.47577 1.90618,0.91538 2.52644,1.08677 3.93492,1.08731 l 1.67204,5.3e-4 1.26976,-1.44019 c 1.24255,-1.40934 1.2935,-1.43639 2.37837,-1.26292 1.65896,0.26528 3.14451,-0.408 3.53925,-1.60404 0.16914,-0.5125 0.23988,-1.27005 0.1572,-1.68344 -0.11822,-0.59109 -0.0172,-0.83886 0.47318,-1.16014 0.52175,-0.34187 0.59437,-0.55095 0.44501,-1.28125 -0.15788,-0.77193 -0.31046,-0.8988 -1.32124,-1.09869 -0.92388,-0.18271 -1.10747,-0.31143 -0.95855,-0.67208 0.45551,-1.10315 0.40087,-1.30639 -0.54528,-2.02806 -1.02507,-0.78186 -1.24828,-0.73279 -1.82431,0.40105 -0.2014,0.39645 -0.74515,0.71024 -1.63304,0.94244 -1.81848,0.47554 -1.98079,0.45906 -2.24001,-0.22741 -0.27515,-0.72868 0.0541,-1.43482 0.77579,-1.66388 0.29315,-0.093 0.66505,-0.41589 0.82643,-0.71744 0.3418,-0.63865 -0.0349,-1.00226 -1.04525,-1.00892 -0.65818,-0.004 -5.06511,-1.3541 -6.82795,-2.09126 -1.24876,-0.5221 -2.5372,-1.54947 -2.5372,-2.02302 0,-0.44917 2.46888,-2.0168 4.12643,-2.62011 0.82955,-0.30193 2.68531,-0.57725 4.9251,-0.73067 3.84,-0.26305 4.87259,-0.44597 4.64016,-0.82204 -0.20002,-0.32364 -1.50392,-0.29595 -2.92599,0.0621 -1.31184,0.33032 -2.38163,0.0499 -3.18156,-0.83403 -0.41431,-0.45781 -0.39937,-0.51457 0.24697,-0.93807 1.02476,-0.67145 0.89353,-1.38275 -0.31036,-1.68228 -1.79628,-0.44692 -2.04255,-0.52238 -3.92676,-1.2031 -1.88963,-0.68269 -3.05755,-1.686 -3.06022,-2.62891 -0.002,-0.68069 0.47929,-0.57009 0.57916,0.13311 0.0767,0.54032 0.2676,0.61238 1.94862,0.73566 1.02495,0.0752 2.14244,0.29403 2.48331,0.48636 0.78818,0.44474 1.90222,-0.0344 3.19817,-1.37537 0.8828,-0.91351 0.88809,-0.93416 0.70279,-2.74625 -0.10268,-1.00421 -0.41311,-2.5109 -0.68983,-3.3482 -0.64208,-1.942807 -0.63486,-3.187207 0.0305,-5.270127 0.34806,-1.08952 0.51673,-2.28214 0.48495,-3.429 -0.0621,-2.24089 0.64236,-6.22054 1.35753,-7.66902 0.30375,-0.61522 0.55228,-1.24256 0.55228,-1.39409 0,-0.15153 0.44925,-0.46317 0.99833,-0.69254 0.54908,-0.22936 1.29783,-0.69649 1.66388,-1.03806 0.36606,-0.34157 1.05136,-0.81566 1.52289,-1.05352 1.15289,-0.58158 1.4737,-1.28075 1.33764,-2.91526 -0.12507,-1.50252 -1.08056,-4.31092 -1.70328,-5.00631 -0.21658,-0.24186 -0.54503,-1.46275 -0.7299,-2.71309 -0.18487,-1.25034 -0.47265,-2.43784 -0.63951,-2.6389 -0.16686,-0.20106 -0.47102,-1.07666 -0.67591,-1.94579 -0.48038,-2.03773 -1.35507,-3.48959 -2.44423,-4.05701 -0.4768,-0.24841 -1.68913,-1.08861 -2.69406,-1.86712 -1.37664,-1.06646 -1.97114,-1.73929 -2.41109,-2.72877 -0.76245,-1.7148 -1.20301,-1.72581 -4.7405,-0.11848 -2.91939,1.32649 -8.72312,2.53228 -12.18839,2.53228 -1.03821,0 -1.80836,0.19309 -2.7469,0.68868 -2.36412,1.24836 -3.53542,2.72164 -4.84965,6.09996 -1.47322,3.78705 -1.725,5.21857 -1.55951,8.86695 0.14034,3.0938 0.20315,3.38669 1.12757,5.25757 l 0.97896,1.98125 0.0821,7.38797 c 0.0452,4.06338 0.20827,8.16666 0.36241,9.1184 0.15415,0.95174 0.28268,2.39412 0.28563,3.205277 0.003,0.81116 0.18879,2.17912 0.413,3.03991 0.45999,1.76601 0.26611,2.23797 -0.71184,1.73284 -1.80361,-0.93159 -2.22852,-2.17871 -1.53311,-4.49977 0.25623,-0.85523 0.1887,-1.270167 -0.54508,-3.349097 -0.46065,-1.30512 -0.88936,-2.42476 -0.95269,-2.48809 -0.0633,-0.0633 -0.0399,0.86081 0.0521,2.05366 0.23071,2.991797 -0.26322,2.923867 -1.76829,-0.2432 -1.32855,-2.79563 -1.23809,-3.24979 0.50813,-2.55109 1.22481,0.49007 1.30812,0.33306 0.58581,-1.10403 -0.27304,-0.54325 -0.58356,-1.46676 -0.69003,-2.05224 -0.10647,-0.58548 -0.46702,-1.72357 -0.80123,-2.5291 -0.33421,-0.80552 -0.69003,-2.36309 -0.79072,-3.46125 -0.10068,-1.09816 -0.40439,-2.72296 -0.6749,-3.61066 -0.65338,-2.14407 -0.93639,-7.97068 -0.54876,-11.29773 0.16206,-1.39101 0.36901,-3.72362 0.45989,-5.18358 0.21564,-3.46421 1.20131,-5.74668 3.60503,-8.34797 3.53387,-3.82433 4.48624,-5.03568 5.45232,-6.93492 2.04357,-4.0175 5.59401,-6.06472 13.22638,-7.62645 2.763,-0.56536 4.15715,-0.66865 10.91508,-0.8087 8.62209,-0.17868 10.5028,-0.0257 15.327828,1.2467 3.76947,0.99404 6.31348,2.14938 8.77339,3.98434 3.05706,2.28039 6.37511,6.62666 7.72796,10.12273 0.41869,1.08198 1.1275,2.86572 1.57514,3.96389 2.602404,6.38418 2.973274,8.91378 2.307324,15.7374 -0.23415,2.39926 -0.558334,4.87398 -0.720394,5.49936 -0.24788,0.95653 -0.22609,1.21284 0.13721,1.61428 0.333134,0.36811 0.359664,0.54941 0.11604,0.79304 -0.24363,0.24362 -0.0972,0.31583 0.640704,0.31583 0.62665,0 1.01227,0.14523 1.11813,0.4211 0.32961,0.85896 0.13808,4.77058 -0.28572,5.8351 -0.29523,0.74158 -0.4063,1.76863 -0.36583,3.38283 0.0527,2.10349 -0.0109,2.44068 -0.6875,3.64435 -0.410084,0.72951 -1.012434,1.44797 -1.338554,1.59656 -0.78264,0.3566 -1.15813,2.100867 -0.54826,2.546817 0.68342,0.49973 0.87434,2.20004 0.31627,2.8167 -1.20472,1.33121 -1.44745,0.36974 -1.45164,-5.750077 -0.003,-4.47677 -0.13293,-5.04119 -1.20093,-5.21973 -0.6244,-0.10439 -1.99599,-2.61991 -1.99791,-3.66419 -0.002,-1.09001 -2.52276,-10.90633 -3.46642,-13.49885 -0.47248,-1.29807 -0.98017,-2.69416 -1.1282,-3.10241 -0.32414,-0.89401 -1.09273,-1.35433 -1.9162,-1.14765 -1.20223,0.30174 -3.53277,3.86822 -3.16092,4.83724 0.0655,0.17063 0.70382,0.68916 1.41854,1.15228 1.75444,1.13684 2.34628,2.17703 2.56253,4.50375 0.16772,1.80458 0.22401,1.93222 1.07312,2.43321 1.36613,0.80603 1.61874,1.60499 0.92705,2.93204 -0.81985,1.57291 -0.82651,5.28201 -0.0108,6.02021 0.43647,0.395 0.52431,0.7053 0.40602,1.43427 -0.11564,0.71262 -0.001,1.14926 0.48962,1.86664 0.35232,0.51503 0.79076,1.67639 0.97431,2.580787 0.30023,1.4792 0.28331,1.75621 -0.16837,2.75786 l -0.50211,1.11349 0.69973,1.36857 c 1.05511,2.06365 1.3939,3.75173 1.35235,6.73824 -0.0286,2.05807 -0.16409,2.99325 -0.56474,3.899 -0.28989,0.65535 -0.61237,1.57988 -0.71662,2.05452 -0.10425,0.47463 -0.47474,1.47548 -0.82331,2.22409 -0.66145,1.42055 -0.84916,3.09155 -0.34729,3.09155 0.16042,0 0.65793,-0.26079 1.10556,-0.57953 l 0.81389,-0.57954 -0.16083,0.64609 c -0.0884,0.35535 -0.24338,1.45744 -0.34428,2.44907 -0.16408,1.61265 -0.13684,1.7851 0.25804,1.63357 0.7371,-0.28285 1.8845,0.3839 2.62444,1.52505 0.38532,0.59424 1.13844,2.47637 1.67362,4.18251 1.47976,4.71746 3.045504,8.90115 3.541924,9.46413 0.56175,0.63706 3.53942,2.01025 6.75406,3.11471 1.36219,0.46801 6.0707,2.22361 10.46335,3.90132 4.39265,1.67772 8.64553,3.27728 9.45085,3.55458 0.80532,0.2773 2.02862,0.77388 2.71843,1.1035 l 1.25421,0.59932 0.0103,4.3261 0.0104,4.32609 -66.621862,-0.0494 c -36.64204,-0.0271 -65.30047,-0.11693 -63.68541,-0.19961 z M 84.153876,85.3083 c 0.4082,-1.07363 0.31755,-1.53439 -0.56356,-2.86463 -0.69477,-1.04891 -0.80899,-1.44711 -0.73211,-2.55241 0.0761,-1.09466 -0.0155,-1.42318 -0.55805,-2.00148 l -0.64914,-0.69185 0.98192,-1.00558 c 0.54005,-0.55307 0.98191,-1.18709 0.98191,-1.40895 0,-0.22185 -0.41902,-1.2351 -0.93117,-2.25165 -0.51214,-1.01656 -1.00104,-2.21827 -1.08644,-2.67047 -0.19493,-1.03221 0.45535,-2.64646 1.3494,-3.349717 0.38018,-0.29905 0.66821,-0.79964 0.66821,-1.16135 0,-0.34965 0.19306,-0.79021 0.42902,-0.97901 1.22173,-0.97756 1.96697,-1.81255 1.96697,-2.20384 0,-0.78885 -0.53318,-1.45675 -1.59562,-1.99877 -1.23842,-0.63179 -1.76925,-0.65913 -2.66392,-0.13718 -1.84685,1.07746 -2.40562,1.23218 -3.2922,0.91159 -0.71317,-0.25789 -1.00952,-0.23469 -1.72435,0.13496 -1.01408,0.5244 -1.397028,1.36892 -1.316618,2.9035 0.032,0.61125 -0.0363,1.72303 -0.15176,2.47064 l -0.21,1.359287 1.507168,1.77657 c 1.13711,1.34036 1.77354,2.44466 2.59204,4.49758 0.63851,1.60149 1.0606,3.07699 1.0259,3.58623 -0.19424,2.85018 0.0982,5.73164 0.67541,6.65553 0.26747,0.4281 0.62948,0.599 1.26883,0.599 0.6707,0 0.92944,0.13325 1.03383,0.53244 0.19338,0.73948 0.68422,0.66521 0.99433,-0.15044 z m -6.92834,-28.876027 c 0,-0.15102 -0.18413,-0.34523 -0.40918,-0.43159 -0.55952,-0.21471 -1.18814,-1.49977 -1.18814,-2.42886 0,-0.4723 0.25491,-1.00496 0.66555,-1.39073 0.83541,-0.78483 0.84121,-1.06489 0.0221,-1.06489 -1.908718,0 -4.494328,2.06226 -4.830178,3.85251 -0.31184,1.6623 -0.18373,1.73814 2.93621,1.73814 1.748508,0 2.803668,-0.10334 2.803668,-0.27458 z m 6.30053,-1.73784 c 1.32949,-1.01406 1.17488,-1.61687 -0.6181,-2.40981 -0.82805,-0.3662 -1.85973,-0.73666 -2.29262,-0.82323 l -0.78706,-0.15742 0.72112,1.0897 c 0.61512,0.9295 0.69334,1.25412 0.53214,2.20827 l -0.18899,1.11859 0.87303,-0.1746 c 0.48016,-0.096 1.27238,-0.47921 1.76048,-0.8515 z M 56.694958,70.88313 c -0.0601,-0.88793 0.0538,-1.27263 0.87115,-2.94103 0.90684,-1.851157 1.18239,-2.000737 0.77719,-0.42187 -0.75661,2.94809 -1.56479,4.59692 -1.64834,3.3629 z m 2.95998,-6.722087 c 0,-0.14642 0.1198,-0.26622 0.26622,-0.26622 0.14642,0 0.26622,0.1198 0.26622,0.26622 0,0.14642 -0.1198,0.26622 -0.26622,0.26622 -0.14642,0 -0.26622,-0.1198 -0.26622,-0.26622 z m -11.42091,-5.46791 c -0.68201,-0.77677 -0.82527,-1.16571 -0.82527,-2.24062 0,-1.21144 -0.0517,-1.31204 -0.75353,-1.46619 -1.07922,-0.23704 -3.02989,0.26641 -4.71322,1.21642 l -1.45342,0.82026 -0.86601,-0.51423 c -0.67019,-0.39796 -0.85434,-0.67697 -0.81439,-1.23393 0.15778,-2.19965 2.78137,-3.95539 6.63628,-4.44108 4.11779,-0.51882 5.31868,-0.56672 7.28872,-0.29073 1.64623,0.23062 2.10544,0.40577 2.61649,0.99795 0.38609,0.44739 0.56693,0.92052 0.47955,1.25466 -0.17143,0.65554 0.24131,1.47453 1.07267,2.12848 0.65182,0.51272 0.85375,1.51651 0.30506,1.51651 -0.17502,0 -0.62426,-0.28859 -0.99833,-0.64132 -0.65588,-0.61845 -3.03803,-1.48845 -4.07553,-1.48845 -0.48155,0 -0.47945,0.0305 0.0483,0.70145 0.66124,0.84063 0.69918,1.70275 0.12791,2.90661 -0.54722,1.15318 -0.80967,1.3423 -2.14519,1.5458 -1.02317,0.1559 -1.16584,0.0989 -1.93011,-0.77159 z"
           id="path102" />
      </g>
      <path
         style="fill:#c5745d;stroke-width:0.266221"
         d="m 0.521258,130.22307 c 2.86118,-0.14647 2.98405,-0.1789 4.79199,-1.26514 1.02053,-0.61314 2.56463,-1.65093 3.43135,-2.3062 1.67783,-1.26849 9.08458,-5.26758 11.71721,-6.32642 0.86862,-0.34935 3.74381,-1.71339 6.38931,-3.03118 2.64549,-1.3178 5.58869,-2.6815 6.54043,-3.03045 2.7479,-1.0075 9.40726,-4.0533 9.89535,-4.52585 0.50012,-0.48419 2.61705,-5.08044 2.61705,-5.68211 0,-0.4798 0.96056,-1.38861 1.14767,-1.08585 0.0746,0.12071 0.33445,0.98669 0.57744,1.92439 0.99551,3.8418 3.26104,7.34227 8.41556,13.00285 2.03531,2.23512 4.01389,4.53735 4.39687,5.11606 0.40811,0.6167 1.29386,1.38944 2.13999,1.86697 0.79402,0.44812 1.5688,1.08098 1.72174,1.40636 0.15293,0.32538 0.658,0.83444 1.12236,1.13125 0.63205,0.40399 0.84666,0.73862 0.8537,1.33111 l 0.009,0.79145 4.60711,0.0729 4.60712,0.073 2.09042,-1.88449 c 2.32191,-2.09317 5.78478,-5.99468 8.02665,-9.04336 2.6563,-3.61228 6.5977,-11.76671 6.96282,-14.40552 0.0889,-0.64264 0.0628,-3.02532 -0.058,-5.29486 -0.24421,-4.58698 -0.12957,-5.06756 1.07767,-4.51751 1.0382,0.47304 1.96645,2.17498 3.02257,5.54187 1.47977,4.71746 3.0455,8.90115 3.541922,9.46413 0.56175,0.63706 3.53942,2.01025 6.75406,3.11471 1.36219,0.46801 6.0707,2.22361 10.46335,3.90132 4.39265,1.67772 8.64553,3.27728 9.45085,3.55458 0.80532,0.2773 2.02862,0.77388 2.71843,1.1035 l 1.25421,0.59932 0.0103,4.3261 0.0104,4.32609 -66.621862,-0.0494 c -36.64206,-0.0271 -65.30049,-0.11694 -63.68543,-0.19962 z m 64.68373,-41.41308 c -1.57979,-0.31383 -4.32633,-1.13446 -6.38931,-1.90904 -1.28163,-0.48122 -2.79532,-1.58745 -2.79532,-2.04288 0,-0.52299 2.66663,-2.17658 4.12643,-2.55882 0.73211,-0.19169 2.6489,-0.44599 4.25954,-0.5651 1.61064,-0.1191 3.58733,-0.36152 4.39265,-0.53869 1.74106,-0.38305 9.28985,-0.31689 9.78363,0.0858 0.73099,0.59607 0.33828,1.47107 -1.3828,3.08105 -2.52335,2.36048 -3.8282,3.16085 -6.30843,3.86944 -3.03048,0.86581 -3.82986,0.9471 -5.68639,0.57829 z m 0.83286,-4.1833 c 0.0875,-0.1415 0.0413,-0.375 -0.10258,-0.51887 -0.3606,-0.3606 -2.19449,0.0173 -2.19449,0.45221 0,0.6058 1.92926,0.66179 2.29707,0.0667 z m 2.87691,-0.2043 c 1.06863,-0.40629 0.80147,-0.76972 -0.44856,-0.61018 -1.30723,0.16684 -1.37871,0.2035 -1.14238,0.58588 0.21814,0.35298 0.70683,0.36044 1.59094,0.0243 z m -6.37198,-7.464219 c -2.26653,-0.610592 -5.0582,-1.793022 -5.0582,-2.142427 0,-0.552385 2.03788,-0.646372 3.01861,-0.139217 0.43212,0.223455 1.30474,0.522911 1.93917,0.665459 1.01883,0.228916 1.24745,0.188219 1.95807,-0.348566 1.59245,-1.202891 3.28434,-1.612675 6.32865,-1.532835 1.44142,0.0378 1.53078,0.0787 1.53078,0.700628 0,0.471038 -0.17181,0.69574 -0.599,0.783412 -2.62324,0.53836 -3.73485,0.869561 -5.12364,1.526582 -1.617,0.764978 -2.54328,0.877901 -3.99444,0.486964 z m -25.04088,-4.320186 c -1.25937,-0.67035 -1.71436,-1.340384 -1.71436,-2.524645 0,-0.640646 0.17083,-1.495152 0.37961,-1.898901 0.35232,-0.681294 0.2931,-0.98189 -0.82345,-4.179764 -2.27365,-6.511891 -2.51146,-7.175871 -2.99795,-8.370771 -0.26827,-0.6589 -0.56945,-2.09649 -0.66928,-3.19465 -0.0998,-1.09817 -0.40286,-2.72296 -0.67337,-3.61066 -0.65338,-2.14408 -0.93639,-7.97068 -0.54876,-11.29773 0.16206,-1.39101 0.36902,-3.72362 0.45989,-5.18359 0.21564,-3.4642 1.20131,-5.74667 3.60503,-8.34796 3.53387,-3.82433 4.48624,-5.03568 5.45232,-6.93492 2.04357,-4.0175 5.59401,-6.06472 13.22639,-7.62645 2.76299,-0.56536 4.15714,-0.66866 10.91507,-0.8087 8.62209,-0.17868 10.5028,-0.0257 15.32783,1.2467 3.76947,0.99404 6.31348,2.14937 8.77339,3.98434 3.05706,2.28039 6.37511,6.62666 7.72796,10.12273 0.41869,1.08197 1.1275,2.86572 1.57515,3.96388 2.614722,6.41444 2.971232,8.87909 2.29436,15.86139 -0.49617,5.11821 -0.80421,6.31114 -2.02048,7.82463 -0.67065,0.83453 -0.8888,1.39432 -0.98218,2.52025 -0.11084,1.33665 -0.0799,1.43692 0.40431,1.3103 0.61981,-0.16209 1.40237,0.52911 1.40237,1.23863 0,0.27375 0.12487,0.57489 0.2775,0.66922 0.18963,0.1172 0.22039,-0.58499 0.0972,-2.21747 l -0.18034,-2.38898 0.72839,-0.47726 c 1.142022,-0.74828 1.589052,-0.2784 1.690262,1.77666 0.10489,2.12963 -0.12432,3.74454 -0.62389,4.395573 -0.37227,0.485135 -0.40272,0.479688 -0.914942,-0.163718 -0.49614,-0.623205 -0.53022,-0.630835 -0.53577,-0.119799 -0.003,0.300164 0.098,0.659563 0.22492,0.798663 0.37504,0.410905 1.100272,2.813855 1.100272,3.645602 0,0.816288 -0.41998,1.803413 -0.905072,2.127324 -0.16111,0.107575 -0.74514,0.197424 -1.29784,0.199666 -0.83559,0.0034 -1.04866,-0.110988 -1.26455,-0.678808 -0.14279,-0.375585 -0.26146,-1.124333 -0.2637,-1.663883 -0.005,-1.227413 -0.2195,-1.568209 -1.06081,-1.686267 -0.74001,-0.103845 -1.83298,-1.96561 -1.85258,-3.155693 -0.0181,-1.0966 -2.80273,-11.63393 -3.86925,-14.64142 -0.54525,-1.53742 -1.15078,-3.9149 -1.34567,-5.28327 -0.61872,-4.34416 -3.23329,-11.70667 -5.20673,-14.66192 -0.55195,-0.82655 -1.52019,-1.91824 -2.15165,-2.42599 l -1.14812,-0.92318 h -2.92843 c -2.0413,0 -3.41232,0.14435 -4.52576,0.47648 -1.13473,0.33848 -3.29352,0.55819 -7.4542,0.75865 l -5.85687,0.28218 -2.39599,1.01302 c -4.24467,1.79465 -6.80814,2.37523 -12.36704,2.80092 -4.57433,0.35031 -6.41971,2.156 -8.69929,8.51226 -0.72402,2.01883 -0.76381,2.3586 -0.76381,6.52242 0,4.36581 0.005,4.40066 0.77066,5.70384 1.10866,1.88625 1.23281,2.68187 1.22858,7.87344 -0.002,2.56238 0.1221,6.27617 0.27597,8.252863 0.15387,1.976693 0.33718,4.576743 0.40736,5.77789 0.0702,1.201148 0.30396,2.683753 0.51951,3.294683 0.21555,0.610927 0.39191,1.202697 0.39191,1.315045 0,0.366762 -0.68612,0.478179 -1.21408,0.19715 z m -4.63586,-8.471025 c -1.31549,-2.768147 -1.2337,-3.246115 0.44125,-2.578494 1.11459,0.444268 1.36841,1.119756 1.40002,3.725961 0.0235,1.940168 -0.54121,1.58822 -1.84127,-1.147467 z m 15.47723,-4.812029 c -0.28534,-0.105554 -0.71132,-0.466773 -0.94662,-0.80271 -0.49917,-0.712667 -0.56937,-2.640267 -0.11279,-3.096857 0.53254,-0.53253 0.12253,-0.59877 -2.02263,-0.32679 -1.44855,0.18365 -2.54232,0.51655 -3.66735,1.11619 -1.50798,0.80374 -1.64497,0.83058 -2.30709,0.4519 -0.54337,-0.31076 -0.69535,-0.59243 -0.66632,-1.23491 0.12896,-2.8547 4.24634,-4.47627 11.2768,-4.4412 3.61163,0.018 4.3782,0.17733 4.93387,1.0254 0.4877,0.74432 0.29272,1.8956 -0.36558,2.15867 -0.24302,0.0971 -1.46016,0.16758 -2.70474,0.15659 l -2.26288,-0.02 1.25624,0.55857 c 0.69093,0.30721 1.33126,0.79493 1.42295,1.08381 0.26444,0.8332 -0.10519,2.208715 -0.75316,2.802748 -0.63934,0.586108 -2.23647,0.880873 -3.0807,0.568572 z m 28.76952,-2.804317 c -2.00462,-0.70938 -2.5928,-2.93926 -1.10541,-4.19081 1.37482,-1.15683 3.55589,-0.77541 4.3866,0.76712 0.69264,1.28615 0.21744,2.83559 -1.0548,3.43931 -0.49698,0.23583 -0.94539,0.41932 -0.99647,0.40776 -0.0511,-0.0115 -0.60455,-0.20208 -1.22992,-0.42338 z m -7.76331,-5.66104 c -0.4492,-0.4391 -0.81672,-1.02807 -0.81672,-1.30881 0,-0.68 1.66491,-2.15032 3.75781,-3.31859 3.26562,-1.8229 8.69608,-2.35934 11.35459,-1.12164 2.87076,1.33651 4.3829,3.12213 3.44131,4.06371 -0.57739,0.57739 -3.98871,1.10393 -7.26345,1.12113 -1.52752,0.008 -3.76696,0.23266 -5.19132,0.52075 -4.63103,0.93666 -4.37067,0.93452 -5.28222,0.0434 z"
         id="path98" />
      <path
         style="fill:#ad7258;stroke-width:0.266221"
         d="m 0.521268,130.22307 c 2.86117,-0.14647 2.98405,-0.1789 4.79198,-1.26514 1.02053,-0.61314 2.56464,-1.65093 3.43135,-2.3062 1.67783,-1.26849 9.08458,-5.26758 11.71721,-6.32642 0.86862,-0.34935 3.74381,-1.71339 6.38931,-3.03118 2.64549,-1.3178 5.58869,-2.6815 6.54043,-3.03045 2.7479,-1.0075 9.40727,-4.0533 9.89536,-4.52585 0.50012,-0.48419 2.61704,-5.08044 2.61704,-5.68211 0,-0.4798 0.96056,-1.38861 1.14767,-1.08585 0.0746,0.12071 0.33445,0.98669 0.57744,1.92439 0.99551,3.8418 3.26105,7.34227 8.41557,13.00285 2.0353,2.23512 4.01389,4.53735 4.39686,5.11606 0.40811,0.6167 1.29387,1.38944 2.13999,1.86697 0.79402,0.44812 1.5688,1.08098 1.72174,1.40636 0.15294,0.32538 0.658,0.83444 1.12236,1.13125 0.63205,0.40399 0.84666,0.73862 0.8537,1.33111 l 0.009,0.79145 4.60711,0.0729 4.60712,0.073 2.09042,-1.88449 c 2.321913,-2.09317 5.784783,-5.99468 8.026653,-9.04336 2.6563,-3.61228 6.5977,-11.76671 6.96282,-14.40552 0.0889,-0.64264 0.0628,-3.02532 -0.058,-5.29486 -0.24421,-4.58698 -0.12957,-5.06756 1.07767,-4.51751 1.03821,0.47304 1.96645,2.17498 3.02258,5.54187 1.47976,4.71746 3.0455,8.90115 3.541919,9.46413 0.56175,0.63706 3.53942,2.01025 6.75406,3.11471 1.36219,0.46801 6.0707,2.22361 10.46335,3.90132 4.39265,1.67772 8.64553,3.27728 9.45085,3.55458 0.80532,0.2773 2.02862,0.77388 2.71843,1.1035 l 1.25421,0.59932 0.0103,4.3261 0.0104,4.32609 -66.621872,-0.0494 c -36.64206,-0.0271 -65.30048,-0.11694 -63.68542,-0.19962 z m 64.68372,-41.41308 c -1.57979,-0.31383 -4.32633,-1.13446 -6.38931,-1.90904 -1.28163,-0.48122 -2.79532,-1.58745 -2.79532,-2.04288 0,-0.52299 2.66663,-2.17658 4.12643,-2.55882 0.73211,-0.19169 2.6489,-0.44599 4.25954,-0.5651 1.61064,-0.1191 3.58733,-0.36152 4.39265,-0.53869 1.74106,-0.38305 9.28985,-0.31689 9.783633,0.0858 0.73099,0.59607 0.33828,1.47107 -1.382793,3.08105 -2.52336,2.36048 -3.82821,3.16085 -6.30844,3.86944 -3.03048,0.86581 -3.82986,0.9471 -5.68639,0.57829 z m 0.83286,-4.1833 c 0.0875,-0.1415 0.0413,-0.375 -0.10258,-0.51887 -0.3606,-0.3606 -2.19449,0.0173 -2.19449,0.45221 0,0.6058 1.92926,0.66179 2.29707,0.0667 z m 2.87691,-0.2043 c 1.06863,-0.40629 0.80147,-0.76972 -0.44856,-0.61018 -1.30723,0.16684 -1.37871,0.2035 -1.14238,0.58588 0.21815,0.35298 0.70683,0.36044 1.59094,0.0243 z m -6.37198,-7.46422 c -2.26652,-0.61059 -5.0582,-1.79302 -5.0582,-2.14243 0,-0.55238 2.03788,-0.64637 3.01861,-0.13921 0.43212,0.22345 1.30475,0.52291 1.93917,0.66546 1.01883,0.22891 1.24745,0.18821 1.95807,-0.34857 1.59246,-1.20289 3.28434,-1.61268 6.32865,-1.53284 1.44142,0.0378 1.53078,0.0787 1.53078,0.70063 0,0.47104 -0.17181,0.69574 -0.599,0.78341 -2.62324,0.53836 -3.73485,0.86957 -5.12364,1.52659 -1.617,0.76497 -2.54328,0.8779 -3.99444,0.48696 z m -25.58789,-5.1043 c -0.42241,-0.32009 -0.80391,-0.60557 -0.84779,-0.63441 -0.0439,-0.0288 0.0551,-0.82714 0.22003,-1.77402 0.29642,-1.70215 0.28575,-1.76195 -0.94314,-5.28903 -2.23464,-6.41372 -2.54445,-7.27968 -3.03824,-8.4925 -0.26827,-0.6589 -0.56945,-2.0965 -0.66928,-3.19466 -0.0998,-1.09816 -0.40286,-2.72296 -0.67337,-3.61066 -0.65338,-2.14407 -0.93639,-7.97068 -0.54876,-11.29773 0.16206,-1.39101 0.36902,-3.72362 0.45989,-5.18358 0.21564,-3.46421 1.20131,-5.74668 3.60503,-8.34797 3.53387,-3.82433 4.48625,-5.03568 5.45233,-6.93492 2.04356,-4.0175 5.594,-6.06472 13.22638,-7.6264503 2.763,-0.56536 4.15714,-0.66865 10.91507,-0.8087 8.62209,-0.17868 10.5028,-0.0257 15.327833,1.2467003 3.76947,0.99404 6.31348,2.14938 8.77339,3.98434 3.05706,2.28039 6.37511,6.62666 7.72796,10.12273 0.41869,1.08198 1.1275,2.86572 1.57515,3.96389 2.614729,6.41443 2.971239,8.87909 2.29437,15.86138 -0.49617,5.11822 -0.80421,6.31114 -2.02049,7.82463 -0.67877,0.84464 -0.88848,1.39044 -0.98598,2.56608 -0.11644,1.40414 -0.0916,1.48303 0.41595,1.32194 0.70971,-0.22526 1.28371,0.37052 1.50779,1.56498 0.0976,0.52012 0.53131,1.77733 0.96386,2.79379 0.929349,2.18395 0.994869,3.40407 0.23467,4.37049 -0.42406,0.53911 -0.78716,0.70146 -1.56884,0.70146 -1.1248,0 -1.34027,-0.27968 -1.34027,-1.73968 0,-1.33894 -0.49263,-2.21224 -1.30082,-2.30601 -0.52521,-0.0609 -0.84002,-0.3745 -1.28386,-1.27873 -0.32341,-0.6589 -0.59296,-1.49784 -0.599,-1.86431 -0.0181,-1.0966 -2.80273,-11.63393 -3.86925,-14.64141 -0.5452,-1.53743 -1.15073,-3.91491 -1.34562,-5.28328 -0.61872,-4.34416 -3.23328,-11.70666 -5.20673,-14.66192 -0.55195,-0.82655 -1.52019,-1.91824 -2.15165,-2.42599 l -1.14812,-0.92317 h -2.928433 c -2.0413,0 -3.41232,0.14434 -4.52576,0.47647 -1.13473,0.33848 -3.29352,0.55819 -7.4542,0.75865 l -5.85686,0.28218 -2.396,1.01302 c -4.24467,1.79465 -6.80814,2.37523 -12.36703,2.80093 -4.57434,0.3503 -6.41971,2.15599 -8.6993,8.51225 -0.72402,2.01883 -0.76381,2.3586 -0.76381,6.52242 v 4.39265 l 0.84738,1.46546 c 1.04904,1.81417 1.12304,2.43947 1.27593,10.78072 0.0671,3.66054 0.24764,7.48102 0.40122,8.48995 0.25114,1.64988 0.22614,1.92438 -0.24846,2.72877 -0.29022,0.49189 -0.40895,0.89435 -0.26384,0.89435 0.32739,0 0.65797,0.84971 0.90626,2.32944 0.21694,1.29286 0.0242,1.39042 -1.08559,0.54946 z m 11.38838,-12.49894 c -0.28534,-0.10555 -0.71132,-0.46677 -0.94662,-0.80271 -0.49917,-0.71267 -0.56937,-2.64026 -0.11279,-3.09685 0.53254,-0.53254 0.12253,-0.59878 -2.02263,-0.3268 -1.44855,0.18366 -2.54232,0.51655 -3.66735,1.11619 -1.50798,0.80375 -1.64497,0.83058 -2.30709,0.4519 -0.54337,-0.31075 -0.69535,-0.59242 -0.66632,-1.2349 0.12896,-2.8547 4.24634,-4.47627 11.2768,-4.4412 3.61163,0.018 4.3782,0.17733 4.93387,1.0254 0.4877,0.74432 0.29272,1.8956 -0.36558,2.15866 -0.24302,0.0971 -1.46016,0.16759 -2.70474,0.1566 l -2.26288,-0.02 1.25624,0.55857 c 0.69093,0.30721 1.33126,0.79492 1.42295,1.08381 0.26444,0.83319 -0.10519,2.20871 -0.75316,2.80274 -0.63934,0.58611 -2.23647,0.88087 -3.0807,0.56857 z m 51.263833,-1.64861 c -0.61752,-1.50181 -0.84587,-3.58671 -0.49259,-4.49752 0.32787,-0.84531 1.549899,-1.29617 1.921739,-0.70903 0.56401,0.89058 -0.004,6.05163 -0.69005,6.27136 -0.14642,0.0469 -0.479019,-0.43228 -0.739099,-1.06481 z M 77.112788,56.55061 c -2.00462,-0.70938 -2.59279,-2.93925 -1.10541,-4.19081 1.37482,-1.15683 3.555893,-0.77541 4.386603,0.76712 0.69264,1.28615 0.21744,2.83559 -1.0548,3.43931 -0.49698,0.23583 -0.94539,0.41932 -0.99647,0.40776 -0.0511,-0.0115 -0.604543,-0.20208 -1.229923,-0.42338 z m -7.76331,-5.66104 c -0.4492,-0.4391 -0.81672,-1.02806 -0.81672,-1.3088 0,-0.68001 1.66491,-2.15033 3.75781,-3.3186 3.26562,-1.8229 8.696083,-2.35933 11.354593,-1.12164 2.87076,1.33651 4.3829,3.12213 3.44131,4.06371 -0.57739,0.57739 -3.98871,1.10394 -7.26345,1.12113 -1.52752,0.008 -3.766963,0.23267 -5.191323,0.52076 -4.63103,0.93666 -4.37066,0.93452 -5.28222,0.0434 z"
         id="path96" />
      <g
         id="g140">
        <path
           style="fill:#994a39;stroke-width:0.266221"
           d="m 0.912548,130.46722 c 2.84795,-0.13932 3.17299,-0.21249 4.65888,-1.04874 0.87853,-0.49443 2.46564,-1.54923 3.52692,-2.34399 2.49078,-1.86528 10.62586,-6.20953 12.84569,-6.85979 0.36605,-0.10723 2.52244,-1.12809 4.79198,-2.26858 2.26953,-1.1405 5.26452,-2.52105 6.65553,-3.0679 1.391,-0.54685 4.33584,-1.82593 6.54408,-2.8424 l 4.01499,-1.84813 1.24288,-2.78989 c 0.68359,-1.53444 1.24289,-2.95061 1.24289,-3.14703 0,-0.19643 0.17476,-0.50218 0.38836,-0.67945 0.32168,-0.26698 0.41608,-0.19258 0.54977,0.43329 0.91828,4.29879 4.7812,11.01086 9.70439,16.86199 0.6776,0.80531 1.70086,2.12311 2.2739,2.92843 0.57304,0.80532 1.19576,1.56002 1.38382,1.67711 0.18806,0.11709 0.34193,0.36927 0.34193,0.56039 0,0.19112 0.33092,0.63441 0.73537,0.9851 0.97707,0.84717 2.74014,3.06334 2.57134,3.23214 -0.0736,0.0736 2.47673,0.15326 5.66738,0.17704 l 5.80119,0.0433 2.21584,-2.06513 c 2.66406,-2.48286 6.37771,-6.68213 8.3911,-9.48838 1.79744,-2.50526 5.53522,-9.85412 6.31091,-12.4079 0.53546,-1.76287 0.55455,-2.14763 0.32763,-6.60218 -0.13253,-2.60162 -0.15561,-4.83197 -0.0513,-4.95634 0.34724,-0.41391 1.23885,0.0975 1.94398,1.11496 0.38417,0.55436 1.60061,3.74543 2.71146,7.11294 1.10808,3.35913 2.2159,6.33048 2.461812,6.60298 0.65723,0.72832 3.71295,2.20056 6.51389,3.1384 2.40195,0.80423 4.17148,1.46173 15.49714,5.75825 3.07486,1.16648 5.88783,2.21293 6.25105,2.32544 1.23201,0.38164 2.13492,1.24581 2.13492,2.04333 0,0.41173 0.1198,0.7486 0.26622,0.7486 0.16383,0 0.26622,1.33111 0.26622,3.46088 v 3.46087 l -66.621852,-0.0499 c -36.64204,-0.0275 -65.24419,-0.11734 -63.56034,-0.19971 z m 64.29244,-41.65723 c -0.14642,-0.0558 -1.66071,-0.53611 -3.36509,-1.06739 -3.14309,-0.97977 -4.8301,-1.85183 -4.95045,-2.55902 -0.0962,-0.56554 2.23803,-2.04063 3.78978,-2.39486 0.73211,-0.16712 2.589,-0.40387 4.12643,-0.52611 1.53743,-0.12224 3.57402,-0.34271 4.52576,-0.48993 2.41176,-0.37307 9.36485,-0.0376 9.52965,0.45979 0.14964,0.45164 -3.2624,3.73427 -4.84632,4.66251 -0.62907,0.36866 -2.03001,0.91654 -3.11321,1.21752 -1.86659,0.51865 -5.12027,0.91703 -5.69655,0.69749 z m 4.98104,-3.91997 c 0.54325,-0.27266 1.15132,-0.49574 1.35126,-0.49574 0.19994,0 0.64489,-0.2995 0.98878,-0.66555 l 0.62526,-0.66555 h -0.65646 c -0.56669,0 -2.35196,0.20578 -7.95543,0.91699 -0.6589,0.0836 -1.54732,0.18106 -1.97427,0.21653 -0.69543,0.0578 -1.32762,0.67963 -0.77669,0.764 0.12202,0.0187 0.46145,0.0658 0.7543,0.10458 0.29284,0.0388 0.83194,0.19671 1.19799,0.35084 1.00118,0.42155 5.24777,0.0749 6.44526,-0.5261 z m -8.84125,-8.51409 c -0.80532,-0.29972 -1.88351,-0.6832 -2.39599,-0.85217 l -0.93177,-0.30723 1.16792,-0.0871 c 0.75683,-0.0564 1.61755,0.10634 2.44534,0.46245 1.48098,0.6371 2.71308,0.70724 3.15116,0.17937 0.84111,-1.01347 3.43191,-1.67081 6.09646,-1.54678 1.51558,0.0705 1.23883,0.41557 -0.66911,0.83421 -0.84861,0.1862 -2.3417,0.68569 -3.31798,1.10997 -2.10903,0.91656 -3.50051,0.96856 -5.54603,0.20727 z m -23.92538,-4.46799 c -0.63239,-0.47702 -0.70408,-1.35619 -0.12628,-1.54855 0.28132,-0.0937 1.07035,1.69752 0.84641,1.92146 -0.0534,0.0534 -0.37744,-0.11443 -0.72013,-0.37291 z m -1.18567,-6.88125 c -0.51784,-1.57403 -1.2983,-3.70048 -1.73436,-4.72543 -1.51264,-3.55542 -2.14724,-5.60022 -2.31339,-7.45419 -0.0919,-1.02496 -0.38598,-2.64225 -0.65361,-3.59399 -0.51114,-1.81776 -1.2434,-8.28815 -0.98524,-8.70586 0.15925,-0.25768 0.937,-8.39673 0.94202,-9.85818 0.002,-0.47317 0.18421,-1.19197 0.40575,-1.59732 0.22153,-0.40536 0.60587,-1.19303 0.85408,-1.75038 0.24821,-0.55736 1.80752,-2.49794 3.46513,-4.31242 2.06409,-2.25943 3.30524,-3.877685 3.93856,-5.135295 1.18342,-2.34995 1.98572,-3.28878 3.95109,-4.62344 2.00366,-1.36066 5.06898,-2.48875 8.96743,-3.30016 2.64089,-0.54967 4.09392,-0.65627 11.04818,-0.81057 9.00619,-0.19982 11.26343,-0.0192 15.99401,1.27959 5.31205,1.45846 8.79835,3.59472 11.76468,7.2089 2.30181,2.804515 3.47386,4.651365 4.19411,6.608825 0.34442,0.93607 0.98958,2.60045 1.43368,3.69861 1.91082,4.72512 2.13644,5.50676 2.46659,8.54537 0.266072,2.44892 0.268892,3.82605 0.0136,6.65553 -0.53365,5.91456 -0.66939,6.48726 -1.88048,7.93378 -0.58851,0.70292 -1.19367,1.60325 -1.34479,2.00073 -0.39141,1.02949 -0.3398,3.15957 0.0908,3.74848 0.35228,0.48178 0.37249,0.47825 0.55503,-0.0969 0.29461,-0.92822 0.65141,-0.57411 1.31038,1.30049 0.3337,0.94927 0.80683,2.10934 1.0514,2.57794 0.553532,1.06055 0.591462,3.35364 0.0627,3.79244 -0.21007,0.17434 -0.77912,0.27886 -1.26455,0.23226 -0.86637,-0.0832 -0.88567,-0.11325 -1.04923,-1.63569 -0.18265,-1.70015 -0.47112,-2.15681 -1.36978,-2.16844 -0.67836,-0.009 -1.79137,-1.90991 -1.79137,-3.05983 0,-1.01797 -2.74098,-11.52965 -3.68785,-14.14295 -0.47912,-1.32233 -1.0067,-3.56405 -1.25099,-5.31552 -0.87216,-6.25317 -4.2655,-14.59273 -6.98941,-17.17738 -1.93867,-1.839555 -5.11389,-2.241185 -9.10323,-1.15147 -1.36553,0.37301 -3.42721,0.62015 -6.52242,0.78189 -5.98014,0.31248 -7.17869,0.48054 -8.91841,1.25053 -4.1676,1.84455 -7.42919,2.65106 -11.69675,2.89233 -3.82528,0.21626 -5.08247,0.69922 -6.9441,2.66762 -1.39512,1.47513 -2.36882,3.32414 -3.48878,6.62497 -0.56473,1.66444 -0.63229,2.3329 -0.63229,6.2562 v 4.39265 l 0.91456,1.73044 0.91456,1.73044 0.2045,7.72041 c 0.11247,4.24623 0.31436,8.49912 0.44864,9.45086 0.24273,1.72037 0.18082,2.39599 -0.21956,2.39599 -0.11519,0 -0.63312,-1.28784 -1.15096,-2.86188 z m 11.79999,-6.18965 c -0.65155,-0.65154 -0.72707,-2.43549 -0.12428,-2.93576 0.59685,-0.49534 2.79929,-0.61221 3.58515,-0.19025 0.56023,0.3008 0.66152,0.53975 0.64004,1.50993 -0.0196,0.88504 -0.17409,1.26678 -0.66556,1.64462 -0.88826,0.68291 -2.73928,0.66753 -3.43535,-0.0285 z M 100.2521,57.61839 c -0.17558,-0.38536 -0.392792,-1.40434 -0.482682,-2.2644 -0.17892,-1.71181 0.11268,-2.37381 1.045622,-2.37381 0.50892,0 0.52962,0.12541 0.39896,2.41701 -0.15052,2.6399 -0.45294,3.33824 -0.9619,2.2212 z M 39.518648,56.44916 c -0.64658,-0.40881 0.17367,-2.37095 1.31037,-3.13458 1.70339,-1.14433 3.53225,-1.48349 8.13647,-1.50889 4.74358,-0.0262 5.60475,0.11391 5.87175,0.95515 0.27617,0.87012 -0.50814,1.28422 -2.43234,1.28422 -0.90758,0 -2.59183,0.17143 -3.74277,0.38095 -1.15095,0.20952 -2.71224,0.45908 -3.46954,0.55457 -0.75729,0.0955 -2.1158,0.52306 -3.01889,0.95016 -1.78146,0.84249 -2.05733,0.89636 -2.65505,0.51842 z m 37.8024,0.0324 c -0.87185,-0.25825 -1.92356,-1.82019 -1.71562,-2.54796 0.0871,-0.30477 0.47007,-0.83679 0.85108,-1.18226 0.57868,-0.5247 0.89151,-0.60573 1.8998,-0.49208 1.6202,0.18262 2.54496,1.19497 2.32572,2.54599 -0.0833,0.51333 -0.31352,1.0954 -0.5116,1.29348 -0.44341,0.4434 -1.95792,0.64689 -2.84938,0.38283 z m -7.4081,-5.71206 c -0.83593,-0.88981 -0.72763,-1.36226 0.54991,-2.39896 3.25922,-2.6448 9.0189,-3.86264 12.86552,-2.72032 2.44532,0.72619 4.64101,2.94315 3.57029,3.60489 -0.61366,0.37926 -4.22164,0.79659 -6.88687,0.79659 -1.50967,0 -3.66437,0.21347 -5.11388,0.50665 -4.46624,0.90333 -4.33974,0.89797 -4.98497,0.21115 z"
           id="path90" />
      </g>
      <path
         style="fill:#685955;stroke-width:0.266221"
         d="m 0.912558,130.46722 c 2.84795,-0.13932 3.17298,-0.21249 4.65887,-1.04874 0.87853,-0.49443 2.46565,-1.54923 3.52693,-2.34399 2.49078,-1.86528 10.62585,-6.20953 12.84568,-6.85979 0.36605,-0.10723 2.52244,-1.12809 4.79198,-2.26858 2.26954,-1.1405 5.26453,-2.52105 6.65553,-3.0679 1.39101,-0.54685 4.33585,-1.82593 6.54409,-2.8424 l 4.01498,-1.84813 1.24289,-2.78989 c 0.68359,-1.53444 1.24288,-2.95061 1.24288,-3.14703 0,-0.19643 0.17477,-0.50218 0.38837,-0.67945 0.32168,-0.26698 0.41607,-0.19258 0.54977,0.43329 0.73658,3.44823 2.98933,7.78497 6.9392,13.3586 0.86544,1.2212 1.75322,2.48147 1.97285,2.8006 0.75888,1.10265 4.65708,5.90114 6.43888,7.92593 0.9834,1.11751 1.72906,2.09078 1.65701,2.16283 -0.072,0.0721 2.47953,0.15046 5.67019,0.17424 l 5.80118,0.0433 2.21584,-2.06513 c 2.66406,-2.48286 6.37771,-6.68213 8.3911,-9.48838 1.79745,-2.50526 5.53523,-9.85412 6.31091,-12.4079 0.53546,-1.76287 0.55455,-2.14763 0.32763,-6.602184 -0.13253,-2.60162 -0.1556,-4.83197 -0.0513,-4.95634 0.34724,-0.41391 1.23886,0.0975 1.94398,1.11496 0.38417,0.55436 1.60062,3.74543 2.71147,7.112944 1.10808,3.35913 2.2159,6.33048 2.461812,6.60298 0.65723,0.72832 3.71295,2.20056 6.51389,3.1384 2.40195,0.80423 4.17148,1.46173 15.49714,5.75825 3.07486,1.16648 5.88783,2.21293 6.25105,2.32544 1.23201,0.38164 2.13492,1.24581 2.13492,2.04333 0,0.41173 0.1198,0.7486 0.26622,0.7486 0.16383,0 0.26622,1.33111 0.26622,3.46088 v 3.46087 l -66.621862,-0.0499 c -36.64204,-0.0275 -65.24418,-0.11734 -63.56033,-0.19971 z m 64.15932,-42.061294 c -0.51247,-0.10266 -1.17137,-0.32786 -1.46421,-0.50045 -0.29285,-0.17258 -1.68151,-0.67334 -3.08593,-1.11282 -1.40441,-0.43947 -2.74943,-1.01555 -2.98891,-1.28018 -0.40919,-0.45214 -0.36759,-0.53361 0.68993,-1.3512 1.04671,-0.80925 1.22407,-0.85795 2.53772,-0.69687 1.1102,0.13614 1.56538,0.0729 2.12766,-0.2955 0.42473,-0.27829 1.58135,-0.5552 2.84719,-0.68165 1.17253,-0.11713 2.79077,-0.32166 3.59609,-0.45451 2.09338,-0.34533 9.05153,-0.0527 9.05153,0.38063 0,0.62911 -3.77924,3.84232 -5.42756,4.61466 -1.50365,0.70455 -5.41818,1.66652 -6.49125,1.59517 -0.25327,-0.0168 -0.87978,-0.11461 -1.39226,-0.21728 z m 4.79198,-3.095 c 0.36606,-0.18867 1.23461,-0.60259 1.93011,-0.91981 0.86616,-0.39507 1.26455,-0.73704 1.26455,-1.08547 0,-0.5953 -0.60717,-0.6438 -3.06488,-0.24483 -1.72117,0.2794 -6.1122,0.80367 -7.50441,0.89598 -1.00938,0.0669 -1.2663,0.26838 -1.05258,0.82533 0.0907,0.23642 0.47762,0.41082 0.91142,0.41082 0.41458,0 0.86758,0.10817 1.00669,0.24038 0.1391,0.13221 0.4925,0.29394 0.78535,0.3594 0.95585,0.21368 5.04169,-0.13025 5.72375,-0.4818 z m -5.32977,-9.029957 c 0.46033,-0.554653 2.87941,-1.637098 4.06035,-1.816838 1.4016,-0.213325 1.51509,0.259507 0.15048,0.626959 -0.62426,0.168098 -1.70209,0.592987 -2.39518,0.944199 -1.47665,0.748276 -2.32841,0.863532 -1.81565,0.24568 z M 60.413008,75.7517 c -0.64959,-0.297439 -0.69635,-0.369736 -0.25055,-0.387323 0.30146,-0.0119 0.78066,0.154267 1.06489,0.369244 0.64784,0.490001 0.23626,0.499141 -0.81434,0.01808 z m -23.6791,-9.260802 c -0.23582,-0.622292 -0.65291,-1.850238 -0.92685,-2.728768 -0.27394,-0.87853 -0.85863,-2.435925 -1.2993,-3.460877 -1.50185,-3.493113 -2.1546,-5.58879 -2.32178,-7.454195 -0.0919,-1.024952 -0.38598,-2.642246 -0.6536,-3.593987 -0.51115,-1.817756 -1.24341,-8.288149 -0.98525,-8.705861 0.15925,-0.257676 0.937,-8.396728 0.94203,-9.858173 0.002,-0.473177 0.18421,-1.191974 0.40574,-1.597328 0.22153,-0.405354 0.60587,-1.193025 0.85408,-1.750381 0.24821,-0.557355 1.80752,-2.49794 3.46513,-4.312413 2.0641,-2.259428 3.30524,-3.877693 3.93856,-5.135304 1.18342,-2.349952 1.98572,-3.28878 3.95109,-4.623439 2.00366,-1.360658 5.06898,-2.488746 8.96743,-3.3001586 2.64089,-0.549667 4.09393,-0.656272 11.04818,-0.810566 9.00619,-0.199821 11.26343,-0.01923 15.99401,1.2795846 5.31205,1.458464 8.79836,3.594722 11.76469,7.208897 2.30181,2.804525 3.47386,4.651373 4.1941,6.608832 0.34443,0.936074 0.98958,2.600447 1.43368,3.698609 1.91083,4.725119 2.13645,5.506758 2.4666,8.545373 0.266072,2.448916 0.268892,3.826046 0.0136,6.655531 -0.53365,5.914558 -0.66939,6.487261 -1.88048,7.93378 -0.58852,0.702914 -1.19368,1.603245 -1.3448,2.000732 -0.38708,1.018097 -0.33494,2.928522 0.13425,4.918971 0.3623,1.536975 0.36029,1.764189 -0.0207,2.345718 -0.23204,0.354146 -0.62398,0.606622 -0.87098,0.561061 -0.54516,-0.100562 -1.64708,-2.197917 -1.64708,-3.134992 0,-1.017969 -2.74098,-11.529641 -3.68786,-14.142943 -0.47912,-1.322329 -1.00669,-3.564051 -1.25098,-5.315523 -0.89538,-6.419567 -4.4021,-14.906335 -7.17398,-17.362057 -1.47596,-1.307603 -2.46454,-1.577494 -5.29304,-1.445047 -1.48162,0.06938 -3.35274,0.322755 -4.15806,0.56306 -0.874,0.260798 -3.28854,0.538211 -5.98998,0.688204 -6.05347,0.336109 -7.19723,0.497623 -8.91841,1.259408 -4.1676,1.844548 -7.42919,2.651061 -11.69676,2.892332 -3.82527,0.216265 -5.08246,0.699225 -6.94409,2.667623 -1.39512,1.475132 -2.36883,3.324139 -3.48878,6.624969 -0.56473,1.664434 -0.63229,2.332894 -0.63229,6.2562 v 4.39265 l 0.91456,1.730439 0.91455,1.730438 0.2045,7.720416 c 0.11248,4.246229 0.31597,8.499114 0.45219,9.450855 0.13623,0.951741 0.19464,1.820288 0.12979,1.930104 -0.26473,0.448282 -0.59789,0.138984 -1.00367,-0.931774 z m 11.29981,-7.653862 c -0.65154,-0.651544 -0.72706,-2.435495 -0.12428,-2.935765 0.59685,-0.495337 2.79929,-0.612213 3.58516,-0.19025 0.56023,0.300806 0.66151,0.539756 0.64003,1.509927 -0.0196,0.885042 -0.17408,1.26678 -0.66555,1.644627 -0.88827,0.682911 -2.73929,0.667532 -3.43536,-0.02854 z m -8.48856,-2.371493 c -0.25437,-0.161101 -0.31073,-0.469588 -0.18163,-0.994254 0.31834,-1.293785 0.94032,-1.983806 2.38388,-2.64469 2.73275,-1.251093 11.46961,-1.603413 12.6765,-0.51119 0.64106,0.580149 0.65722,0.767298 0.11322,1.311297 -0.29635,0.296347 -0.93686,0.418878 -2.19633,0.420166 -2.7107,0.0028 -8.76297,1.150009 -10.3742,1.966478 -1.47178,0.745808 -1.84713,0.815904 -2.42144,0.452193 z m 37.77589,0.01605 c -0.87185,-0.258251 -1.92355,-1.820192 -1.71562,-2.547961 0.0871,-0.304776 0.47007,-0.836795 0.85108,-1.182267 0.57868,-0.524699 0.89152,-0.605726 1.89981,-0.492078 1.62019,0.182619 2.54495,1.194971 2.32571,2.545991 -0.0833,0.513333 -0.31352,1.095399 -0.5116,1.293478 -0.44341,0.443408 -1.95792,0.646897 -2.84938,0.382837 z m -7.28224,-5.645858 c -1.08928,-0.856823 -0.89933,-1.442472 0.89666,-2.764601 2.69604,-1.984712 6.42676,-2.999132 10.14484,-2.758481 2.26921,0.146874 3.96706,0.821417 5.22272,2.07495 1.52742,1.524835 1.10798,1.951122 -2.3459,2.3842 -1.22785,0.153964 -3.31458,0.279929 -4.63718,0.279929 -1.32261,0 -2.82324,0.121186 -3.33475,0.269301 -0.51151,0.148118 -1.70872,0.392075 -2.66046,0.542128 -0.95174,0.150053 -1.92126,0.330466 -2.15449,0.400913 -0.23323,0.07045 -0.74238,-0.122302 -1.13144,-0.428336 z"
         id="path88" />
      <path
         style="fill:#664935;stroke-width:0.266221"
         d="m 1.0456684,130.4667 c 2.39891,-0.11207 3.42674,-0.27354 4.12643,-0.64823 1.24771,-0.66816 4.52723,-2.80191 5.1913096,-3.37761 0.90504,-0.7846 7.31144,-4.2105 9.97963,-5.33673 1.39302,-0.588 4.44957,-2.01017 6.79231,-3.1604 2.34275,-1.15022 4.55904,-2.17762 4.92509,-2.28311 0.66218,-0.19083 1.17761,-0.4124 6.2562,-2.68942 6.4036,-2.87109 5.66367,-2.34751 6.80319,-4.81399 0.55861,-1.20911 1.16732,-2.61782 1.3527,-3.13047 0.18538,-0.51264 0.40663,-0.93208 0.49167,-0.93208 0.085,0 0.32092,0.56904 0.52418,1.26455 1.34403,4.599 7.31683,13.5229 15.23921,22.76875 0.8501,0.99211 1.54563,1.92055 1.54563,2.06322 0,0.16054 2.24205,0.25938 5.88361,0.25938 h 5.8836 l 2.00856,-1.79699 c 2.2356,-2.00013 5.85443,-6.07428 8.09906,-9.11808 1.62228,-2.19987 4.82861,-8.16824 6.0786,-11.31491 1.29475,-3.25933 1.38619,-4.01229 1.0596,-8.725144 -0.16168,-2.33309 -0.23571,-4.30025 -0.1645,-4.37145 0.31369,-0.3137 1.22799,0.28283 1.82728,1.19219 0.35878,0.54441 1.51864,3.64067 2.57746,6.880574 1.05882,3.23991 2.1055,6.14825 2.32595,6.463 0.468302,0.66859 4.002562,2.50255 6.173992,3.20374 1.77412,0.57289 3.846,1.33636 11.22482,4.13625 3.00164,1.13898 6.89513,2.60349 8.65219,3.25447 3.89155,1.44179 4.363,1.84823 4.59418,3.96069 0.14813,1.35361 0.19815,1.46375 0.35335,0.77812 0.10144,-0.44812 0.19461,0.6327 0.21229,2.46255 l 0.0315,3.26121 -66.621872,-0.0504 C 27.830848,130.63868 -0.7113916,130.5488 1.0456684,130.4667 Z M 65.071878,88.405926 c -0.51247,-0.10266 -1.17137,-0.32786 -1.46421,-0.50045 -0.29285,-0.17258 -1.68151,-0.67334 -3.08593,-1.11282 -1.40441,-0.43947 -2.74943,-1.01555 -2.98891,-1.28018 -0.40919,-0.45214 -0.36759,-0.53361 0.68993,-1.3512 1.04671,-0.80925 1.22407,-0.85795 2.53772,-0.69687 1.1102,0.13614 1.56538,0.0729 2.12766,-0.2955 0.42473,-0.27829 1.58135,-0.5552 2.84719,-0.68165 1.17253,-0.11713 2.79077,-0.32166 3.59609,-0.45451 2.09338,-0.34533 9.05153,-0.0527 9.05153,0.38063 0,0.62911 -3.77924,3.84232 -5.42756,4.61466 -1.50365,0.70455 -5.41818,1.66652 -6.49125,1.59517 -0.25327,-0.0168 -0.87978,-0.11461 -1.39226,-0.21728 z m 4.79198,-3.095 c 0.36606,-0.18867 1.23461,-0.60259 1.93011,-0.91981 0.86616,-0.39507 1.26455,-0.73704 1.26455,-1.08547 0,-0.5953 -0.60717,-0.6438 -3.06488,-0.24483 -1.72117,0.2794 -6.1122,0.80367 -7.50441,0.89598 -1.00938,0.0669 -1.2663,0.26838 -1.05258,0.82533 0.0907,0.23642 0.47762,0.41082 0.91142,0.41082 0.41458,0 0.86758,0.10817 1.00669,0.24038 0.1391,0.13221 0.4925,0.29394 0.78535,0.3594 0.95585,0.21368 5.04169,-0.13025 5.72375,-0.4818 z m -5.32977,-9.02996 c 0.46033,-0.55465 2.87941,-1.6371 4.06035,-1.81684 1.4016,-0.21332 1.51509,0.25951 0.15048,0.62696 -0.62426,0.1681 -1.70209,0.59299 -2.39518,0.9442 -1.47665,0.74828 -2.32841,0.86353 -1.81565,0.24568 z m -4.12108,-0.52927 c -0.64959,-0.29744 -0.69635,-0.36973 -0.25055,-0.38732 0.30146,-0.0119 0.78066,0.15427 1.06489,0.36924 0.64784,0.49 0.23626,0.49914 -0.81434,0.0181 z m -23.77518,-9.66013 c -0.30016,-0.84193 -0.78095,-2.24957 -1.06844,-3.1281 -0.28748,-0.87853 -0.83887,-2.37603 -1.2253,-3.32777 -0.38643,-0.95174 -0.95008,-2.3596 -1.25255,-3.12858 -0.30248,-0.76898 -0.71017,-2.62587 -0.90597,-4.12643 -0.19581,-1.500557 -0.52819,-3.267382 -0.73863,-3.92628 -0.5517,-1.72736 -0.79964,-7.379925 -0.45542,-10.382629 0.15946,-1.391006 0.36428,-3.723618 0.45516,-5.183583 0.2462,-3.955305 1.06599,-5.572381 4.98026,-9.823844 2.37122,-2.575482 3.27888,-3.779873 4.01045,-5.321505 1.48675,-3.133016 3.99081,-5.053679 8.52811,-6.541204 4.6758,-1.5329356 7.25273,-1.8667506 15.57394,-2.0174476 8.40187,-0.152159 10.22063,-0.0017 14.90143,1.2326606 3.46857,0.914696 6.12066,2.061546 8.49335,3.672811 2.72615,1.851296 7.12239,7.423239 7.90277,10.016246 0.18749,0.622976 0.51524,1.474411 0.72833,1.892074 0.2131,0.417664 0.95417,2.256883 1.64683,4.087154 1.58037,4.175891 2.064282,7.434109 1.7089,11.505979 -0.76373,8.750432 -0.54702,7.895077 -2.69905,10.653358 -0.76396,0.97918 -0.90845,3.2669 -0.35579,5.63306 0.38711,1.65736 0.38888,1.89675 0.0182,2.46255 -0.80136,1.22303 -1.71524,0.50263 -2.24443,-1.76927 -0.15347,-0.6589 -0.71572,-3.11288 -1.24943,-5.45328 -0.90167,-3.95398 -1.60768,-6.381764 -3.02052,-10.386887 -0.30991,-0.87853 -0.73155,-2.8603 -0.93699,-4.403933 -0.53464,-4.017263 -2.43695,-9.770022 -4.60814,-13.935485 -1.13296,-2.173617 -3.19761,-4.306493 -4.56542,-4.7163 -1.28915,-0.386235 -5.59014,-0.151589 -7.46714,0.407378 -0.89557,0.266701 -3.27354,0.531066 -6.12309,0.680719 -5.99177,0.314679 -6.93341,0.458413 -9.18463,1.401969 -4.38073,1.8361 -6.82714,2.393056 -12.38569,2.819761 -2.58578,0.1985 -2.91756,0.289175 -4.30459,1.176445 -1.82496,1.167418 -3.26003,3.186559 -4.39767,6.187539 -1.27032,3.350953 -1.47119,4.660264 -1.3681,8.91769 0.093,3.841863 0.0978,3.867745 1.00984,5.446254 l 0.91639,1.586047 0.20803,7.731693 c 0.11442,4.25244 0.30973,8.54164 0.43404,9.53157 0.1243,0.98993 0.16739,1.85847 0.0958,1.93011 -0.32306,0.32305 -0.54566,0.0275 -1.05476,-1.40054 z m 12.06144,-7.04021 c -0.7609,-0.43148 -0.92309,-0.75414 -0.92769,-1.84561 -0.005,-1.11989 0.38828,-1.53091 1.6614,-1.7375 2.30908,-0.37472 3.41375,1.52517 1.81587,3.12305 -0.81573,0.81573 -1.65522,0.96721 -2.54958,0.46006 z m -9.13861,-2.57624 c -0.28202,-0.17879 -0.29256,-0.44958 -0.0523,-1.34195 0.24,-0.89128 0.54778,-1.27443 1.51799,-1.88972 1.74576,-1.10713 3.63526,-1.42814 8.50981,-1.44575 3.86548,-0.014 4.35418,0.0355 4.85853,0.49162 0.67114,0.60698 0.69055,0.78925 0.14241,1.33739 -0.29634,0.29635 -0.93685,0.41888 -2.19632,0.42016 -2.7107,0.003 -8.76298,1.15001 -10.3742,1.96648 -1.46293,0.74133 -1.84832,0.81529 -2.40594,0.46177 z m 37.76658,-0.27011 c -0.36101,-0.10063 -0.87697,-0.56067 -1.14658,-1.0223 -0.44819,-0.76742 -0.45552,-0.90639 -0.0856,-1.62179 0.58754,-1.13617 1.91454,-1.47246 3.17058,-0.80349 1.32607,0.70627 1.59115,1.84325 0.69529,2.98216 -0.56396,0.71695 -1.27842,0.84321 -2.63372,0.46542 z m -7.28843,-5.369266 c -1.08928,-0.856823 -0.89933,-1.442472 0.89666,-2.764602 2.69604,-1.984711 6.42676,-2.999131 10.14484,-2.758481 2.26921,0.146875 3.96706,0.821418 5.22272,2.07495 1.52742,1.524836 1.10798,1.951122 -2.3459,2.384201 -1.22785,0.153961 -3.31458,0.279926 -4.63718,0.279926 -1.32261,0 -2.82324,0.121186 -3.33475,0.269301 -0.51151,0.148118 -1.70872,0.392075 -2.66046,0.542128 -0.95174,0.150053 -1.92126,0.330466 -2.15449,0.400913 -0.23323,0.07045 -0.74238,-0.122302 -1.13144,-0.428336 z"
         id="path86" />
      <path
         style="fill:#77312a;stroke-width:0.266221"
         d="m 0.804064,130.46669 c 2.39891,-0.11207 3.42674,-0.27354 4.12642,-0.64823 1.24771,-0.66816 4.52724,-2.80191 5.19132,-3.37761 0.88028,-0.76314 7.26116,-4.18684 9.70114,-5.20521 1.25335,-0.52312 4.31541,-1.94744 6.80458,-3.16517 2.48917,-1.21773 4.82526,-2.30127 5.19131,-2.40786 0.66241,-0.19289 1.18434,-0.41742 6.2562,-2.69142 6.34919,-2.8467 5.71712,-2.42971 6.59496,-4.35078 0.43491,-0.95174 1.06602,-2.38934 1.40247,-3.19466 l 0.61173,-1.46421 0.28774,0.74943 c 0.15825,0.41219 0.28774,0.86505 0.28774,1.00636 0,0.63551 1.52082,3.79964 2.99482,6.23084 3.36492,5.55008 6.04211,9.25693 11.18672,15.4892 l 2.45729,2.97679 6.07096,0.0182 6.07097,0.0182 2.27509,-2.19633 c 5.68729,-5.49039 8.80374,-9.64514 11.83168,-15.77361 3.11897,-6.31271 3.26457,-6.93018 2.96698,-12.58286 -0.129,-2.45041 -0.15641,-4.549071 -0.0609,-4.663691 0.30643,-0.36775 0.99917,0.0881 1.66175,1.0936 0.3546,0.538091 1.51619,3.644911 2.5813,6.904051 1.0651,3.25914 2.14874,6.19423 2.40808,6.52242 0.654016,0.82768 4.324706,2.50066 9.984136,4.55045 10.66596,3.8631 19.1997,7.1814 19.73797,7.675 0.41629,0.38174 0.61939,0.98355 0.753,2.23117 0.10063,0.93964 0.29336,1.77666 0.42829,1.86006 0.13493,0.0834 0.24533,1.16285 0.24533,2.39879 v 2.24714 l -66.621856,-0.0504 c -36.64203,-0.0277 -65.18427,-0.11756 -63.42721,-0.19966 z m 64.02621,-42.060771 c -0.51248,-0.10266 -1.17137,-0.32786 -1.46422,-0.50045 -0.29284,-0.17258 -1.68151,-0.67334 -3.08592,-1.11282 -1.40441,-0.43947 -2.74943,-1.01555 -2.98892,-1.28018 -0.40918,-0.45214 -0.36758,-0.53361 0.68994,-1.3512 1.04671,-0.80925 1.22407,-0.85795 2.53772,-0.69687 1.1102,0.13614 1.56538,0.0729 2.12766,-0.2955 0.42473,-0.27829 1.58135,-0.5552 2.84718,-0.68165 1.17254,-0.11713 2.79078,-0.32166 3.5961,-0.45451 2.09338,-0.34533 9.05152,-0.0527 9.05152,0.38063 0,0.62911 -3.77923,3.84232 -5.42755,4.61466 -1.50365,0.70455 -5.41818,1.66652 -6.49126,1.59517 -0.25326,-0.0168 -0.87977,-0.11461 -1.39225,-0.21728 z m 5.45754,-3.40531 c 1.7791,-0.75978 3.06154,-1.57894 3.06154,-1.95557 0,-0.32366 -1.45225,-0.31509 -3.6761,0.0217 -1.87422,0.28383 -5.98068,0.77134 -7.42563,0.88157 -1.01142,0.0771 -1.26566,0.27855 -1.05258,0.83383 0.0907,0.23642 0.47762,0.41081 0.91142,0.41081 0.41457,0 0.86758,0.10818 1.00668,0.24039 0.79398,0.75464 4.98641,0.50179 7.17467,-0.43271 z m -5.99533,-8.71965 c 0.46033,-0.55465 2.87941,-1.63709 4.06034,-1.81683 1.40161,-0.21333 1.5151,0.2595 0.15048,0.62696 -0.62426,0.16809 -1.70208,0.59298 -2.39517,0.94419 -1.47665,0.74828 -2.32842,0.86354 -1.81565,0.24568 z m -4.12108,-0.52926 c -0.64959,-0.29744 -0.69636,-0.36974 -0.25055,-0.38733 0.30146,-0.0119 0.78066,0.15427 1.06488,0.36925 0.64785,0.49 0.23627,0.49914 -0.81433,0.0181 z M 36.206484,64.760463 c -0.40339,-1.28119 -1.07019,-3.10814 -1.48177,-4.05988 -1.71148,-3.957641 -2.30451,-5.800061 -2.48503,-7.720421 -0.10323,-1.09816 -0.41363,-2.73791 -0.68979,-3.643879 -0.81159,-2.662521 -0.94257,-7.359651 -0.38497,-13.80511 0.66153,-7.64667 0.59541,-7.5077 6.6901,-14.0625 0.79859,-0.85888 1.79159,-2.26268 2.20667,-3.11956 1.29146,-2.66607 1.79952,-3.30093 3.66159,-4.57548 2.38641,-1.63345 5.21218,-2.72466 9.11301,-3.51912 2.76693,-0.56353 4.24051,-0.67524 10.99322,-0.8334 8.7699,-0.20541 11.38748,-0.002 15.85808,1.2342 5.49585,1.51932 8.88763,3.591 11.77781,7.19383 2.204,2.74745 3.39747,4.62505 4.086,6.42821 0.35312,0.92474 1.30052,3.37335 2.10534,5.44135 1.24165,3.19048 1.51315,4.21143 1.79242,6.74046 0.18745,1.69745 0.25088,3.80342 0.14735,4.892189 -0.1,1.05146 -0.29758,3.21018 -0.43909,4.79717 -0.28464,3.191831 -0.38274,3.46054 -1.95365,5.35119 l -1.0925,1.31486 v 2.48852 c 0,1.55242 0.1126,2.55996 0.29933,2.67845 0.3882,0.24633 0.68981,1.700361 0.43231,2.084161 -0.10956,0.16329 -0.45356,0.37619 -0.76443,0.47311 -0.46212,0.14407 -0.64717,0.004 -1.01431,-0.77012 -0.24699,-0.52049 -0.56117,-1.642411 -0.69817,-2.493151 -0.38411,-2.38504 -2.7602,-11.33899 -3.70851,-13.97489 -0.48083,-1.33654 -1.00293,-3.52821 -1.20495,-5.058199 -0.76755,-5.81304 -4.18678,-14.34238 -6.8075,-16.98144 -1.96337,-1.97709 -2.48826,-2.15516 -5.93104,-2.01202 -1.64273,0.0683 -3.61839,0.32163 -4.42953,0.56797 -0.93716,0.28461 -3.18913,0.5316 -6.2562,0.68618 -5.66632,0.28559 -6.95744,0.50579 -9.36441,1.59717 -3.11535,1.41257 -5.84539,2.05564 -10.24349,2.41291 -4.3005,0.34934 -5.21363,0.61568 -6.85992,2.00095 -1.27142,1.06982 -2.76534,3.44378 -3.67166,5.83457 -1.27032,3.35095 -1.47119,4.66026 -1.3681,8.917689 0.0928,3.83439 0.0996,3.87089 1.00615,5.45753 l 0.91269,1.597331 0.1951,7.321089 c 0.1073,4.026591 0.28216,8.249531 0.38858,9.384301 0.10642,1.13476 0.13121,2.06321 0.0551,2.06321 -0.0761,0 -0.46844,-1.04825 -0.87183,-2.32943 z m 12.0655,-5.98998 c -0.6076,-0.480791 -0.85493,-2.173921 -0.37566,-2.571671 0.56926,-0.47245 2.06154,-0.63677 2.89078,-0.31832 0.62843,0.24134 0.73211,0.43075 0.73211,1.33753 0,0.78984 -0.14929,1.16094 -0.59168,1.470811 -0.712,0.4987 -2.0755,0.54063 -2.65555,0.0816 z m -8.63309,-2.719991 c -0.30054,-0.78321 0.34283,-1.87267 1.54637,-2.61854 1.42123,-0.88077 4.30437,-1.3533 8.20418,-1.34459 3.31239,0.007 4.5862,0.24699 4.4735,0.84143 -0.0627,0.33073 -0.40375,0.46901 -1.28115,0.51947 -3.02732,0.17411 -9.48195,1.48113 -11.00665,2.22877 -1.81669,0.89082 -1.74316,0.87664 -1.93625,0.37346 z m 36.63889,-0.40811 c -1.31083,-1.31084 -0.0468,-3.3998 1.8564,-3.06787 1.25261,0.21847 2.23226,1.31097 2.0087,2.24011 -0.23442,0.97425 -0.85456,1.3602 -2.18554,1.3602 -0.79215,0 -1.31187,-0.16476 -1.67956,-0.53244 z m -6.54771,-5.35377 c -0.50376,-0.55804 -0.50002,-0.56806 0.55774,-1.498689 3.36928,-2.964341 10.17272,-4.139781 13.7711,-2.379261 1.744,0.85326 2.83509,1.916651 2.40641,2.345321 -0.47499,0.475 -2.39701,0.7393 -5.46648,0.75171 -1.94667,0.008 -3.93939,0.225129 -6.21115,0.677149 -4.06405,0.80865 -4.4148,0.81584 -5.05762,0.10377 z"
         id="path84" />
      <path
         style="fill:#4e3626;stroke-width:0.266221"
         d="m 0.804058,130.46669 c 2.398915,-0.11207 3.426746,-0.27354 4.126429,-0.64823 1.247708,-0.66816 4.527234,-2.80191 5.191316,-3.37761 0.880283,-0.76314 7.261161,-4.18684 9.70114,-5.20521 1.253349,-0.52312 4.315409,-1.94744 6.804577,-3.16517 2.489169,-1.21773 4.82526,-2.30127 5.191314,-2.40786 0.662409,-0.19289 1.184342,-0.41742 6.2562,-2.69142 6.349191,-2.8467 5.717118,-2.42971 6.594961,-4.35078 0.434903,-0.95174 1.066012,-2.38934 1.402465,-3.19466 l 0.611734,-1.46421 0.287737,0.74943 c 0.158255,0.41219 0.287737,0.86505 0.287737,1.00636 0,0.63551 1.520821,3.79964 2.994822,6.23084 3.36492,5.55008 6.04211,9.25693 11.186728,15.4892 l 2.45728,2.97679 6.07096,0.0182 6.07097,0.0182 2.2751,-2.19633 c 5.68729,-5.49039 8.80373,-9.64514 11.83167,-15.77361 3.11897,-6.31271 3.26457,-6.93018 2.96698,-12.58286 -0.129,-2.45041 -0.15641,-4.54907 -0.0609,-4.66369 0.30643,-0.36775 0.99917,0.0881 1.66176,1.0936 0.35459,0.53809 1.51618,3.64491 2.58129,6.90405 1.06511,3.25914 2.14875,6.19423 2.40809,6.52242 0.654022,0.82768 4.324712,2.50066 9.984142,4.55045 10.66596,3.8631 19.1997,7.1814 19.73797,7.675 0.41629,0.38174 0.61939,0.98355 0.753,2.23117 0.10063,0.93964 0.29336,1.77666 0.42829,1.86006 0.13493,0.0834 0.24533,1.16285 0.24533,2.39879 v 2.24714 l -66.621862,-0.0504 c -36.642034,-0.0277 -65.18428,-0.11756 -63.42722,-0.19966 z M 36.20648,64.76046 c -0.403392,-1.28119 -1.070188,-3.10814 -1.481769,-4.05988 -1.711478,-3.95763 -2.304512,-5.80006 -2.485026,-7.72041 -0.10323,-1.09817 -0.413636,-2.73791 -0.689795,-3.64389 -0.811589,-2.66252 -0.94257,-7.35965 -0.384964,-13.8051 0.661528,-7.64668 0.595409,-7.5077 6.690095,-14.06251 0.798592,-0.85888 1.791594,-2.26268 2.206673,-3.11956 1.291458,-2.66606 1.799515,-3.30092 3.661586,-4.57547 2.386416,-1.63345 5.212179,-2.72467 9.113013,-3.51913 2.766925,-0.56353 4.240511,-0.67524 10.993215,-0.8334 8.7699,-0.20541 11.38748,-0.002 15.85808,1.2342 5.49585,1.51932 8.88763,3.591 11.77781,7.19384 2.204,2.74744 3.39747,4.62504 4.086,6.4282 0.35312,0.92475 1.30052,3.37335 2.10534,5.44135 1.24166,3.19048 1.51316,4.21144 1.79243,6.74046 0.18745,1.69745 0.25088,3.80342 0.14735,4.8922 -0.1,1.05145 -0.29758,3.21017 -0.43909,4.79716 -0.28463,3.19177 -0.38288,3.4609 -1.95312,5.35012 -1.06971,1.28701 -1.09176,1.35484 -1.0818,3.32776 0.006,1.10769 0.11076,2.80383 0.23372,3.76921 0.19769,1.55208 0.16943,1.77601 -0.24419,1.93473 -0.87901,0.33731 -1.14144,-0.31622 -2.28348,-5.68662 -0.78966,-3.71337 -2.14617,-8.63687 -3.18032,-11.54307 -0.46528,-1.30756 -0.99806,-3.56138 -1.1957,-5.0582 -0.76754,-5.81304 -4.18678,-14.34238 -6.8075,-16.98143 -1.96336,-1.9771 -2.48826,-2.15516 -5.93104,-2.01202 -1.64273,0.0683 -3.61838,0.32162 -4.42953,0.56796 -0.93716,0.28461 -3.18913,0.53161 -6.2562,0.68619 -5.66631,0.28558 -6.95743,0.50579 -9.364408,1.59716 -3.115348,1.41257 -5.845388,2.05564 -10.243486,2.41291 -4.300505,0.34934 -5.213636,0.61568 -6.859927,2.00095 -1.271414,1.06982 -2.765333,3.44379 -3.671657,5.83457 -1.270317,3.35095 -1.471184,4.66026 -1.368097,8.91769 0.09284,3.8344 0.09957,3.87089 1.006151,5.45754 l 0.912684,1.59732 0.1951,7.32109 c 0.107303,4.0266 0.282165,8.24953 0.388584,9.3843 0.10642,1.13477 0.131213,2.06321 0.0551,2.06321 -0.07612,0 -0.468438,-1.04824 -0.87183,-2.32943 z m 12.065503,-5.98998 c -0.607605,-0.48078 -0.854933,-2.17391 -0.375662,-2.57167 0.569263,-0.47245 2.061537,-0.63677 2.890779,-0.31832 0.628429,0.24134 0.732109,0.43076 0.732109,1.33753 0,0.78984 -0.149289,1.16095 -0.59168,1.47081 -0.712001,0.4987 -2.075498,0.54063 -2.655546,0.0816 z m -8.633088,-2.71999 c -0.300548,-0.78321 0.342829,-1.87266 1.54637,-2.61854 1.421225,-0.88077 4.304368,-1.35329 8.204174,-1.34459 3.312388,0.007 4.586207,0.24699 4.473507,0.84143 -0.0627,0.33073 -0.403751,0.46901 -1.28115,0.51948 -3.027322,0.1741 -9.481953,1.48112 -11.00665,2.22876 -1.816696,0.89082 -1.743166,0.87664 -1.936251,0.37346 z m 36.638893,-0.40811 c -1.31084,-1.31083 -0.0468,-3.3998 1.85639,-3.06787 1.25261,0.21847 2.23226,1.31098 2.0087,2.24012 -0.23441,0.97424 -0.85456,1.36019 -2.18554,1.36019 -0.79215,0 -1.31187,-0.16476 -1.67955,-0.53244 z m -6.54772,-5.35377 c -0.50376,-0.55803 -0.50002,-0.56806 0.55774,-1.49869 3.36928,-2.96434 10.17272,-4.13978 13.7711,-2.37926 1.744,0.85326 2.83509,1.91665 2.40641,2.34532 -0.47499,0.475 -2.39701,0.7393 -5.46648,0.75172 -1.94667,0.008 -3.93939,0.22512 -6.21115,0.67714 -4.06405,0.80865 -4.4148,0.81585 -5.05762,0.10377 z"
         id="path82" />
      <path
         style="fill:#402f1d;stroke-width:0.266221"
         d="m 3.256708,130.0093 c 1.32128,-0.22191 3.98157,-1.65824 6.18151,-3.3375 0.68842,-0.52547 2.46524,-1.61559 3.94849,-2.42248 1.48326,-0.80689 3.05623,-1.68291 3.4955,-1.94671 0.43926,-0.26379 1.99666,-0.97468 3.46088,-1.57974 1.46421,-0.60506 3.9201,-1.74421 5.45753,-2.53145 1.53743,-0.78723 3.87352,-1.86676 5.19131,-2.39896 1.3178,-0.5322 2.75539,-1.13295 3.19466,-1.335 2.21099,-1.01698 6.32701,-2.83586 7.94356,-3.51028 l 1.82047,-0.75949 1.35158,-2.87117 c 0.74337,-1.57915 1.44291,-2.77714 1.55452,-2.66222 0.11162,0.11493 0.51512,1.04756 0.89667,2.07251 1.05299,2.82865 5.61615,10.23848 8.77109,14.24284 0.74985,0.95174 1.7155,2.20963 2.14588,2.79532 0.43038,0.58569 1.7889,2.23293 3.01893,3.66054 l 2.23642,2.59566 h 6.13183 6.13182 l 2.00911,-1.79699 c 2.12778,-1.90314 5.83466,-6.02772 8.0643,-8.973 2.62621,-3.46915 6.82016,-12.13661 7.25982,-15.00356 0.0968,-0.63145 0.0459,-3.0097 -0.11321,-5.285 -0.1591,-2.27529 -0.20965,-4.21454 -0.11232,-4.30944 0.0973,-0.0949 0.57788,0.28926 1.06791,0.8537 0.72084,0.83027 1.28432,2.22229 2.95089,7.28985 1.2883,3.91733 2.26593,6.4614 2.60987,6.79162 0.600452,0.57648 5.099902,2.86222 5.634262,2.86222 0.18203,0 4.80301,1.6885 10.26884,3.75223 5.46583,2.06372 10.61126,3.9863 11.4343,4.27238 2.10978,0.73335 2.60672,1.36168 2.94572,3.72456 0.15475,1.07867 0.38662,2.07503 0.51527,2.21413 0.12864,0.1391 0.23389,1.06755 0.23389,2.06322 v 1.8103 l -64.492092,-0.0313 c -35.47066,-0.0172 -63.9148,-0.12828 -63.20921,-0.24679 z m 33.0749,-66.34378 c -0.24983,-0.915135 -0.85887,-2.562379 -1.35344,-3.660542 -1.75229,-3.890954 -2.31552,-5.659728 -2.65754,-8.345798 -0.18925,-1.48631 -0.5183,-3.18158 -0.73121,-3.76727 -0.65985,-1.81512 -0.80313,-6.96832 -0.31829,-11.44751 0.23773,-2.19633 0.4747,-4.65222 0.5266,-5.45754 0.17088,-2.65185 1.26652,-4.32754 6.31323,-9.65562 1.09742,-1.15861 1.97096,-2.36595 2.24857,-3.10782 0.82318,-2.19982 1.76389,-3.42023 3.55436,-4.61114 2.89637,-1.92651 5.62957,-2.96591 10.25609,-3.90026 3.67678,-0.74255 16.54132,-1.00713 20.44876,-0.42056 4.68628,0.70348 9.79579,2.42984 12.38459,4.1844 3.56329,2.41502 7.00349,6.7191 8.57025,10.72236 4.443302,11.35313 4.539642,11.96789 3.45427,22.04041 -0.27784,2.57839 -0.2949,2.62314 -1.59546,4.18593 -1.60494,1.928535 -1.83296,3.031697 -1.36536,6.605696 0.21835,1.668952 0.23879,2.592207 0.0613,2.769684 -0.44361,0.443607 -1.03948,-1.086124 -1.74781,-4.487008 -0.36216,-1.738816 -0.85296,-3.880282 -1.09066,-4.758812 -0.23771,-0.87853 -0.65939,-2.43592 -0.93706,-3.46087 -0.27767,-1.02495 -0.92966,-3.09323 -1.44886,-4.59617 -0.51921,-1.50293 -0.94609,-3.18013 -0.94863,-3.72709 -0.0101,-2.1673 -1.23308,-6.54083 -3.25591,-11.64334 -1.77306,-4.47245 -3.57658,-6.98541 -5.84694,-8.14689 -1.40719,-0.71989 -5.55469,-0.70077 -7.90669,0.0364 -1.26,0.39494 -3.00124,0.60041 -6.65553,0.78536 -5.84108,0.29564 -7.11003,0.50952 -9.52533,1.6055 -2.49533,1.13229 -6.33582,2.18162 -7.93616,2.16838 -0.73211,-0.006 -2.56735,0.0994 -4.07831,0.23432 -2.9548,0.26387 -3.44921,0.47742 -5.46471,2.36032 -1.4571,1.36124 -2.63674,3.30176 -3.58432,5.89627 -1.32204,3.61976 -1.44819,4.4366 -1.34275,8.69477 0.0968,3.90933 0.10363,3.94702 1.00356,5.53347 l 0.90612,1.59732 0.20915,7.70644 c 0.11503,4.238541 0.28612,8.161976 0.38018,8.718746 0.26235,1.552808 -0.0196,1.203584 -0.52607,-0.651574 z m 11.98372,-5.676218 c -0.53649,-0.536497 -0.53649,-1.55524 0,-2.091737 0.47738,-0.477375 1.76633,-0.550176 2.52759,-0.142761 0.63399,0.339299 0.69025,1.640844 0.0966,2.234498 -0.5392,0.539197 -2.08498,0.539197 -2.62418,0 z m 28.28217,-2.975973 c -0.75124,-0.874701 -0.77406,-1.395082 -0.0912,-2.077998 1.53888,-1.538881 4.38959,0.106361 3.2357,1.867428 -0.36152,0.551749 -0.65535,0.676458 -1.59383,0.676458 -0.7659,0 -1.28438,-0.155769 -1.55073,-0.465888 z"
         id="path80" />
    </g>
</svg>